<?xml version='1.0' encoding='utf-8'?>
<svg xmlns="http://www.w3.org/2000/svg" version="1.1" id="Ebene_1" x="0px" y="0px" viewBox="0 0 600 600" style="enable-background:new 0 0 600 600;"> <style type="text/css"> .st0{fill:url(#SVGID_1_);} .st1{fill:url(#SVGID_2_);stroke:#FFFFFF;stroke-width:2;stroke-miterlimit:10;} .st2{fill:#E52528;} .st3{fill:#F3E600;} .st4{fill:#66B32E;} .st5{fill:#D4155B;} .st6{fill:#00AA9E;} .st7{fill:#FFFFFF;} </style> <g> <linearGradient id="SVGID_1_" gradientUnits="userSpaceOnUse" x1="435.0991" y1="533.9985" x2="164.9009" y2="66.0015"> <stop offset="0" style="stop-color:#808081"/> <stop offset="0.7044" style="stop-color:#333333"/> </linearGradient> <path class="st0" d="M537,473H63c-7.7,0-14-6.3-14-14V141.1c0-7.7,6.3-14,14-14H537c7.7,0,14,6.3,14,14v317.9 C551.1,466.7,544.8,473,537,473z"/> <linearGradient id="SVGID_2_" gradientUnits="userSpaceOnUse" x1="362.7662" y1="266.2664" x2="237.2338" y2="48.8378"> <stop offset="0" style="stop-color:#808081"/> <stop offset="0.7044" style="stop-color:#333333"/> </linearGradient> <line class="st1" x1="48.9" y1="157.6" x2="551.1" y2="157.6"/> </g> <circle class="st2" cx="69.6" cy="142.6" r="6.9"/> <circle class="st3" cx="91" cy="142.6" r="6.9"/> <circle class="st4" cx="112.5" cy="142.6" r="6.9"/> <g> <g> <path class="st5" d="M71.5,237.2v-2.6l13.2-8.8v3.3l-10.2,6.7v0.1l10.2,6.7v3.3L71.5,237.2z"/> <path class="st5" d="M90.3,239c0-5.6,3.7-9,7.6-9c2,0,3.5,0.8,4.9,2.1h0.1l-0.2-3v-6.4h3.5v24.8h-2.9l-0.3-2.1H103 c-1.4,1.4-3.3,2.5-5.4,2.5C93.2,248,90.3,244.7,90.3,239z M102.7,242.8v-8.1c-1.4-1.3-2.7-1.8-4-1.8c-2.7,0-4.9,2.3-4.9,6.1 c0,3.9,1.7,6.1,4.6,6.1C100,245.1,101.4,244.3,102.7,242.8z"/> <path class="st5" d="M120,233.2h-7.6v-2.8h11.1v17.1H120V233.2z M118.9,224.6c0-1.5,1.1-2.5,2.6-2.5s2.6,1,2.6,2.5 c0,1.5-1.1,2.5-2.6,2.5S118.9,226.1,118.9,224.6z"/> <path class="st5" d="M131.9,230.4h3.5l3.6,9.3c0.6,1.7,1.2,3.4,1.8,5.1h0.1c0.6-1.7,1.1-3.4,1.8-5.1l3.6-9.3h3.3l-6.9,17.1h-3.9 L131.9,230.4z"/> <path class="st6" d="M175,239c0-5.7,4.4-9,9.6-9c2.8,0,4.9,1.1,6.3,2.5l-1.7,2.2c-1.4-1.1-2.8-1.8-4.4-1.8c-3.7,0-6.2,2.4-6.2,6.1 c0,3.7,2.5,6.1,6.1,6.1c2,0,3.7-0.9,5.1-2l1.5,2.2c-1.9,1.7-4.4,2.6-6.9,2.6C179,248,175,244.7,175,239z"/> <path class="st6" d="M201.5,241.6v-16h-5.9v-2.8h9.4v19c0,2.4,1.3,3.3,3.2,3.3c0.9,0,1.9-0.2,3.1-0.7l0.8,2.6 c-1.6,0.6-2.8,1-4.7,1C203.6,248,201.5,245.7,201.5,241.6z"/> <path class="st6" d="M216.9,243c0-3.8,3.5-5.7,12.1-6.4c-0.1-2.1-1.3-3.8-4.3-3.8c-2.1,0-4.1,0.9-5.8,1.9l-1.3-2.3 c1.9-1.2,4.8-2.4,7.7-2.4c4.7,0,7.2,2.7,7.2,7.2v10.3h-2.9l-0.3-2.2h-0.1c-1.8,1.4-4.2,2.6-6.5,2.6C219.4,248,216.9,246,216.9,243 z M229,242.9v-4c-6.7,0.5-8.7,1.8-8.7,3.9c0,1.7,1.5,2.4,3.4,2.4C225.5,245.2,227.3,244.3,229,242.9z"/> <path class="st6" d="M237.6,245.3l1.6-2.3c2,1.4,4.3,2.2,7.3,2.2c2.6,0,3.9-1,3.9-2.3c0-1.2-0.7-2-5-2.9c-4.5-0.9-6.6-2.5-6.6-5.1 c0-2.9,2.6-5,7.3-5c2.7,0,5.3,1.1,7,2.2l-1.6,2.2c-1.6-1.1-3.6-1.8-5.7-1.8c-2.5,0-3.5,1-3.5,2.2c0,1.3,1.4,1.9,4.7,2.6 c5.6,1.2,7,2.7,7,5.3c0,2.9-2.8,5.2-7.8,5.2C242.7,248,239.7,246.8,237.6,245.3z"/> <path class="st6" d="M258.6,245.3l1.6-2.3c2,1.4,4.3,2.2,7.3,2.2c2.6,0,3.9-1,3.9-2.3c0-1.2-0.7-2-5-2.9c-4.5-0.9-6.6-2.5-6.6-5.1 c0-2.9,2.6-5,7.3-5c2.7,0,5.3,1.1,7,2.2l-1.6,2.2c-1.6-1.1-3.6-1.8-5.7-1.8c-2.5,0-3.5,1-3.5,2.2c0,1.3,1.4,1.9,4.7,2.6 c5.6,1.2,7,2.7,7,5.3c0,2.9-2.8,5.2-7.8,5.2C263.7,248,260.7,246.8,258.6,245.3z"/> <path class="st6" d="M280.1,230.9h15.3v2.5h-15.3V230.9z M280.1,238.6h15.3v2.5h-15.3V238.6z"/> <path class="st6" d="M301.2,231.3c0-3.6,1.9-6.5,5.3-8.2l1,2c-2.4,1.3-3.7,3.2-3.7,5.9l0.5,2.9l-2-2.5c0.6-0.6,1.5-1.1,2.3-1.1 c1.5,0,2.6,1.1,2.6,2.7c0,1.7-1.1,2.9-2.8,2.9C302.6,235.9,301.2,234.2,301.2,231.3z M309.6,231.3c0-3.6,1.9-6.5,5.3-8.2l1,2 c-2.4,1.3-3.7,3.2-3.7,5.9l0.5,2.9l-2-2.5c0.6-0.6,1.5-1.1,2.3-1.1c1.5,0,2.6,1.1,2.6,2.7c0,1.7-1.1,2.9-2.8,2.9 C310.9,235.9,309.6,234.2,309.6,231.3z"/> <path class="st6" d="M322,239c0-5.7,4.4-9,9.6-9c2.8,0,4.9,1.1,6.3,2.5l-1.7,2.2c-1.4-1.1-2.8-1.8-4.4-1.8c-3.7,0-6.2,2.4-6.2,6.1 c0,3.7,2.5,6.1,6.1,6.1c2,0,3.7-0.9,5.1-2l1.5,2.2c-1.9,1.7-4.4,2.6-6.9,2.6C326,248,322,244.7,322,239z"/> <path class="st6" d="M342.3,239c0-5.7,4-9,8.5-9s8.5,3.3,8.5,9c0,5.7-4,8.9-8.5,8.9S342.3,244.7,342.3,239z M355.7,239 c0-3.7-1.9-6.1-4.9-6.1s-4.9,2.4-4.9,6.1c0,3.7,1.9,6.1,4.9,6.1S355.7,242.7,355.7,239z"/> <path class="st6" d="M363.3,239c0-5.6,3.7-9,7.6-9c2,0,3.5,0.8,4.9,2.1h0.1l-0.2-3v-6.4h3.5v24.8h-2.9l-0.3-2.1H376 c-1.4,1.4-3.3,2.5-5.4,2.5C366.2,248,363.3,244.7,363.3,239z M375.7,242.8v-8.1c-1.4-1.3-2.7-1.8-4-1.8c-2.7,0-4.8,2.3-4.8,6.1 c0,3.9,1.7,6.1,4.6,6.1C373,245.1,374.4,244.3,375.7,242.8z"/> <path class="st6" d="M384.6,239c0-5.6,4.2-8.9,8.8-8.9c5,0,7.9,3.3,7.9,8.1c0,0.7-0.1,1.4-0.2,1.9H387v-2.6h11.9l-0.8,0.9 c0-3.7-1.8-5.6-4.7-5.6c-3,0-5.4,2.2-5.4,6.2c0,4.2,2.6,6.3,6.3,6.3c1.9,0,3.5-0.6,5-1.5l1.2,2.2c-1.8,1.2-4,2-6.7,2 C388.7,248,384.6,244.7,384.6,239z"/> <path class="st6" d="M406.2,231.3c0-3.6,1.9-6.5,5.3-8.2l1,2c-2.4,1.3-3.7,3.2-3.7,5.9l0.5,2.9l-2-2.5c0.6-0.6,1.5-1.1,2.3-1.1 c1.5,0,2.6,1.1,2.6,2.7c0,1.7-1.1,2.9-2.8,2.9C407.6,235.9,406.2,234.2,406.2,231.3z M414.6,231.3c0-3.6,1.9-6.5,5.3-8.2l1,2 c-2.4,1.3-3.7,3.2-3.7,5.9l0.5,2.9l-2-2.5c0.6-0.6,1.5-1.1,2.3-1.1c1.5,0,2.6,1.1,2.6,2.7c0,1.7-1.1,2.9-2.8,2.9 C415.9,235.9,414.6,234.2,414.6,231.3z"/> <path class="st5" d="M428,242.7l10.2-6.7v-0.1l-10.2-6.7v-3.3l13.2,8.8v2.6L428,246V242.7z"/> <path class="st5" d="M107.5,279.2v-2.6l13.2-8.8v3.3l-10.2,6.7v0.1l10.2,6.7v3.3L107.5,279.2z"/> <path class="st5" d="M127.4,264.7h3.5v6.6l-0.2,3.8h0.1c1.6-1.7,3.6-3.1,6.2-3.1c4,0,5.8,2.5,5.8,6.9v10.6h-3.5v-10.2 c0-3-1-4.4-3.5-4.4c-1.9,0-3.1,0.9-4.9,2.7v11.8h-3.5V264.7z"/> <path class="st5" d="M148.5,286.7h6.3v-15.5h-5V269c2.7-0.4,4.4-0.9,5.9-1.7h2.6v19.4h5.6v2.9h-15.4V286.7z"/> <path class="st5" d="M170,284.7l10.2-6.7v-0.1l-10.2-6.7v-3.3l13.2,8.8v2.6L170,288V284.7z"/> <path class="st7" d="M189.9,266.6h3.5v9.4h8.7v-9.4h3.5v22.9h-3.5v-10.5h-8.7v10.5h-3.5V266.6z"/> <path class="st7" d="M210.6,281c0-5.6,4.2-8.9,8.8-8.9c5,0,7.9,3.3,7.9,8.1c0,0.7-0.1,1.4-0.2,1.9H213v-2.6h11.9l-0.8,0.9 c0-3.7-1.8-5.6-4.7-5.6c-3,0-5.4,2.2-5.4,6.2c0,4.2,2.6,6.3,6.3,6.3c1.9,0,3.5-0.6,5-1.5l1.2,2.2c-1.8,1.2-4,2-6.7,2 C214.7,290,210.6,286.7,210.6,281z"/> <path class="st7" d="M237.5,283.6v-16h-5.9v-2.8h9.4v19c0,2.4,1.3,3.3,3.2,3.3c0.9,0,1.9-0.2,3.1-0.7l0.8,2.6 c-1.6,0.6-2.8,1-4.7,1C239.6,290,237.5,287.7,237.5,283.6z"/> <path class="st7" d="M258.5,283.6v-16h-5.9v-2.8h9.4v19c0,2.4,1.3,3.3,3.2,3.3c0.9,0,1.9-0.2,3.1-0.7l0.8,2.6 c-1.6,0.6-2.8,1-4.7,1C260.6,290,258.5,287.7,258.5,283.6z"/> <path class="st7" d="M273.3,281c0-5.7,4-9,8.5-9c4.5,0,8.5,3.3,8.5,9c0,5.7-4,8.9-8.5,8.9C277.3,290,273.3,286.7,273.3,281z M286.7,281c0-3.7-1.9-6.1-4.9-6.1c-3,0-4.9,2.4-4.9,6.1c0,3.7,1.9,6.1,4.9,6.1C284.8,287.1,286.7,284.7,286.7,281z"/> <path class="st7" d="M313.6,266.6h3.8l1.4,13.8c0.2,1.9,0.3,3.2,0.4,5.4h0.1c0.4-2.2,0.7-3.5,1.1-5.4l2.1-8h2.9l2,8 c0.5,1.9,0.7,3.2,1.1,5.4h0.1c0.1-2.2,0.2-3.5,0.3-5.4l1.4-13.9h3.6l-3.2,23h-4.1l-2-8.7c-0.3-1.4-0.6-2.8-0.8-4.2h-0.1 c-0.2,1.4-0.4,2.8-0.8,4.2l-2,8.7h-4L313.6,266.6z"/> <path class="st7" d="M336.3,281c0-5.7,4-9,8.5-9s8.5,3.3,8.5,9c0,5.7-4,8.9-8.5,8.9S336.3,286.7,336.3,281z M349.7,281 c0-3.7-1.9-6.1-4.9-6.1s-4.9,2.4-4.9,6.1c0,3.7,1.9,6.1,4.9,6.1S349.7,284.7,349.7,281z"/> <path class="st7" d="M360.1,272.4h2.9l0.3,4h0.1c1.8-2.8,4.4-4.4,7.5-4.4c1.3,0,2.3,0.2,3.4,0.7l-0.8,3c-1.2-0.4-1.8-0.5-3.1-0.5 c-2.5,0-4.8,1.2-6.7,4.7v9.7h-3.5V272.4z"/> <path class="st7" d="M384.5,283.6v-16h-5.9v-2.8h9.4v19c0,2.4,1.3,3.3,3.2,3.3c0.9,0,1.9-0.2,3.1-0.7l0.8,2.6 c-1.6,0.6-2.8,1-4.7,1C386.6,290,384.5,287.7,384.5,283.6z"/> <path class="st7" d="M399.3,281c0-5.6,3.7-9,7.6-9c2,0,3.5,0.8,4.9,2.1h0.1l-0.2-3v-6.4h3.5v24.8h-2.9l-0.3-2.1H412 c-1.4,1.4-3.3,2.5-5.4,2.5C402.2,290,399.3,286.7,399.3,281z M411.7,284.8v-8.1c-1.4-1.3-2.7-1.8-4-1.8c-2.7,0-4.8,2.3-4.8,6.1 c0,3.9,1.7,6.1,4.6,6.1C409,287.1,410.4,286.3,411.7,284.8z"/> <path class="st5" d="M422.5,279.2v-2.6l13.2-8.8v3.3l-10.2,6.7v0.1l10.2,6.7v3.3L422.5,279.2z"/> <path class="st5" d="M454,264.7h3l-11.5,30.5h-3L454,264.7z"/> <path class="st5" d="M463.4,264.7h3.5v6.6l-0.2,3.8h0.1c1.6-1.7,3.6-3.1,6.2-3.1c4,0,5.8,2.5,5.8,6.9v10.6h-3.5v-10.2 c0-3-1-4.4-3.5-4.4c-1.9,0-3.1,0.9-4.9,2.7v11.8h-3.5V264.7z"/> <path class="st5" d="M484.5,286.7h6.3v-15.5h-5V269c2.7-0.4,4.4-0.9,5.9-1.7h2.6v19.4h5.6v2.9h-15.4V286.7z"/> <path class="st5" d="M506,284.7l10.2-6.7v-0.1l-10.2-6.7v-3.3l13.2,8.8v2.6L506,288V284.7z"/> <path class="st5" d="M107.5,321.2v-2.6l13.2-8.8v3.3l-10.2,6.7v0.1l10.2,6.7v3.3L107.5,321.2z"/> <path class="st5" d="M127.4,306.7h3.5v6.6l-0.2,3.8h0.1c1.6-1.7,3.6-3.1,6.2-3.1c4,0,5.8,2.5,5.8,6.9v10.6h-3.5v-10.2 c0-3-1-4.4-3.5-4.4c-1.9,0-3.1,0.9-4.9,2.7v11.8h-3.5V306.7z"/> <path class="st5" d="M150.1,314.4h2.9l0.3,4h0.1c1.8-2.8,4.4-4.4,7.5-4.4c1.3,0,2.3,0.2,3.4,0.7l-0.8,3c-1.2-0.4-1.8-0.5-3.1-0.5 c-2.5,0-4.8,1.2-6.7,4.7v9.7h-3.5V314.4z"/> <path class="st5" d="M170,326.7l10.2-6.7v-0.1l-10.2-6.7v-3.3l13.2,8.8v2.6L170,330V326.7z"/> <path class="st5" d="M71.5,363.2v-2.6l13.2-8.8v3.3l-10.2,6.7v0.1l10.2,6.7v3.3L71.5,363.2z"/> <path class="st5" d="M103,348.7h3l-11.5,30.5h-3L103,348.7z"/> <path class="st5" d="M111.3,365c0-5.6,3.7-9,7.6-9c2,0,3.5,0.8,4.9,2.1h0.1l-0.2-3v-6.4h3.5v24.8h-2.9l-0.3-2.1H124 c-1.4,1.4-3.3,2.5-5.4,2.5C114.2,374,111.3,370.7,111.3,365z M123.7,368.8v-8.1c-1.4-1.3-2.7-1.8-4-1.8c-2.7,0-4.9,2.3-4.9,6.1 c0,3.9,1.7,6.1,4.6,6.1C121,371.1,122.4,370.3,123.7,368.8z"/> <path class="st5" d="M141,359.2h-7.6v-2.8h11.1v17.1H141V359.2z M139.9,350.6c0-1.5,1.1-2.5,2.6-2.5s2.6,1,2.6,2.5 c0,1.5-1.1,2.5-2.6,2.5S139.9,352.1,139.9,350.6z"/> <path class="st5" d="M152.9,356.4h3.5l3.6,9.3c0.6,1.7,1.2,3.4,1.8,5.1h0.1c0.6-1.7,1.1-3.4,1.8-5.1l3.6-9.3h3.3l-6.9,17.1h-3.9 L152.9,356.4z"/> <path class="st5" d="M176,368.7l10.2-6.7v-0.1l-10.2-6.7v-3.3l13.2,8.8v2.6L176,372V368.7z"/> </g> </g> </svg>