<?xml version='1.0' encoding='utf-8'?>
<svg xmlns="http://www.w3.org/2000/svg" version="1.1" width="1720px" height="1229px" viewBox="-320 450 1720 1229"> <g id="layer1"> <g style="fill:rgb(246,86,86); fill-opacity:1.0; stroke-linejoin: miter"> <path d="M-324.29468,444.9785C-324.62555,444.9785,-324.94284,445.11002,-325.17685,445.3439C-325.41074,445.5778,-325.54214,445.8949,-325.54214,446.22592L-325.54068,1680.0665C-325.54068,1680.7559,-324.98215,1681.3137,-324.29324,1681.3137L1404.2911,1681.3153C1404.6222,1681.3153,1404.9392,1681.1843,1405.1731,1680.9502C1405.4072,1680.7163,1405.5386,1680.3989,1405.5386,1680.0679L1405.537,446.2275C1405.537,445.53854,1404.9788,444.9798,1404.2896,444.9798L-324.29468,444.9785 Z"/> </g> <g style="fill:rgb(60,70,79); fill-opacity:1.0; stroke-linejoin: miter"> <path d="M747.88385,898.368L747.88306,898.3688L751.41064,913.489L751.4102,913.48975L755.98157,933.08405C756.41455,934.93976,757.80237,936.42554,759.6245,936.9834L759.6237,936.98425L778.7728,942.8482C780.6108,943.4107,782.60864,942.94495,784.0077,941.62714L784.00684,941.62787L798.58514,927.8964C799.9727,926.5893,800.55975,924.64294,800.12683,922.7872L800.1263,922.7878L795.5558,903.19257L795.55505,903.19354L792.0295,888.07465L792.0286,888.0755C792.41187,889.7144,791.6597,892.70135,788.5961,893.41583L788.5965,893.4159C787.9189,893.57367,787.32196,893.5472,786.8692,893.4634L786.8685,893.46423C802.9706,896.4425,815.89496,908.75604,819.6631,924.90155L819.6624,924.8981C823.2342,940.2456,817.86316,956.22327,805.9065,966.20325L805.9058,966.2041C803.8483,967.92175,802.73755,970.91296,803.3847,973.68616L803.38477,973.6865L826.9451,1074.6915L826.9445,1074.6919C828.2626,1080.3391,824.1252,1087.3508,815.6988,1089.316L815.69836,1089.3167C807.27313,1091.2817,800.45966,1086.8245,799.14246,1081.1766L799.14233,1081.1769L775.5813,980.17163L775.58057,980.1725C774.9343,977.3971,772.61395,975.2063,770.00793,974.57654L770.00726,974.5774C754.86957,970.9165,742.9839,958.96344,739.3962,943.6197L739.397,943.6225C735.6311,927.4755,741.7734,910.7137,754.89575,900.9177L754.89594,900.91754C753.44275,902.0025,750.43134,902.3541,748.61395,899.92065L748.61304,899.92145C748.20056,899.3664,747.987,898.8118,747.88385,898.36755L748.5504,894.3284L748.54956,894.3292C747.8012,895.53284,747.5615,896.9863,747.88385,898.368L747.88306,898.3688 M758.3028,895.93787L757.63617,899.97766L757.6357,899.9786C758.38544,898.77313,758.6253,897.31964,758.3028,895.9385L758.302,895.9395C758.1187,895.14886,757.7733,894.30457,757.1878,893.52L757.18744,893.52C754.8199,890.3492,750.8574,890.5804,748.4951,892.3442L748.4945,892.34515C731.9494,904.6956,724.2507,925.78503,728.97766,946.0519L728.9782,946.05475C733.48083,965.3158,748.4115,980.3623,767.4943,984.97546L767.494,984.97546C766.33514,984.6957,765.4709,983.92615,765.1623,982.60144L765.1618,982.6022L788.7234,1083.6066L788.72266,1083.6074C791.69434,1096.3424,805.3809,1102.708,818.12933,1099.7349L818.1286,1099.7356C830.8782,1096.7612,840.335,1084.9968,837.36444,1072.2607L837.36383,1072.2615L813.8032,971.2567L813.8034,971.25684C814.11224,972.5803,813.6778,973.65283,812.7629,974.417L812.76196,974.41785C827.8343,961.83655,834.56604,941.73785,830.0826,922.4732L830.0819,922.4703C825.3519,902.2045,809.1179,886.6996,788.81573,882.943L788.8159,882.94324C788.02325,882.796,787.1149,882.775,786.16516,882.9966L786.1647,882.99756C782.2015,883.92084,780.9684,887.75226,781.61035,890.50446L781.60956,890.5052L785.1368,905.6225L785.1361,905.62317L789.70807,925.21686L791.24896,920.1085L776.6715,933.8396L781.9065,932.61884L762.7576,926.75385L766.40106,930.6532L761.8299,911.0591L761.82916,911.0595L758.3028,895.93787 Z"/> </g> <g style="fill:rgb(83,93,102); fill-opacity:1.0; stroke-linejoin: miter"> <path d="M807.6281,903.5689C813.62915,909.13403,818.01373,916.46936,819.96423,924.82275L819.9644,924.8242C819.96564,924.82587,819.96625,924.8285,819.9668,924.8309C823.56366,940.2916,818.153,956.3876,806.10657,966.4426C804.1342,968.08923,803.0695,970.9618,803.6884,973.61536L803.6887,973.6156L813.6361,1016.26416L813.63586,1016.2654C813.64636,1016.3042,813.64874,1016.34595,813.6425,1016.3876L813.6421,1016.38904C813.6262,1016.4934,813.55975,1016.5791,813.4694,1016.62317L813.4694,1016.62415Q803.9717,1022.4159,798.4053,1024.4845L798.4053,1024.4845Q797.5961,1024.7845,796.8692,1025.0066L796.86847,1025.0076Q791.4648,1026.8444,786.8328,1027.2188L786.8114,1027.2197Q786.6542,1027.2214,786.4888,1027.2241C786.4065,1027.2257,786.3291,1027.1947,786.2711,1027.1409C786.24084,1027.1128,786.2162,1027.0785,786.1987,1027.0391C786.1881,1027.0166,786.18097,1026.9928,786.1764,1026.969L786.17645,1026.9701L775.2774,980.2422L775.2774,980.2422C774.9505,978.8397,774.17377,977.58765,773.14014,976.62915C772.22156,975.7776,771.1055,975.16284,769.9349,974.87964C762.9038,973.1798,756.5689,969.7046,751.4292,964.93774C745.4191,959.36456,741.042,952.0247,739.0927,943.6944C739.0928,943.6936,739.09265,943.6928,739.09247,943.6923L739.0925,943.69385C735.85565,929.81165,739.887,915.47864,749.35455,905.4399C749.435,905.35443,749.55707,905.3214,749.6697,905.3546L749.67194,905.3553C749.7187,905.36896,749.7607,905.39355,749.79553,905.4257C749.8403,905.4673,749.8728,905.522,749.88727,905.58356L751.71436,913.4183L751.71387,913.419L756.28534,933.0128L756.2846,933.0138C756.51746,934.0082,757.0412,934.8903,757.7661,935.56256C758.31464,936.071,758.977,936.4589,759.71576,936.68536L778.8644,942.55005L778.86365,942.55066C780.595,943.07983,782.4766,942.6409,783.7937,941.4001L798.37103,927.66956C799.6778,926.4384,800.23083,924.6054,799.82306,922.85815L799.8224,922.8587L795.252,903.2636L795.2514,903.26434L793.42426,895.4311L793.42334,895.4317C793.39813,895.323,793.43176,895.20874,793.5132,895.1316C793.5997,895.05,793.7248,895.02454,793.8364,895.0661C798.9834,896.98157,803.6598,899.88837,807.6281,903.5689 Z"/> </g> <g style="fill:rgb(83,93,102); fill-opacity:1.0; stroke-linejoin: miter"> <path d="M813.3696,1016.42957L813.2749,1016.46265Q803.84607,1022.2074,798.3219,1024.2604L798.3218,1024.2604Q797.5188,1024.558,796.79926,1024.7781C796.78516,1024.7822,796.7715,1024.788,796.7585,1024.7947L796.74805,1024.796Q792.21027,1026.3345,788.2235,1026.8344Q787.5159,1026.9235,786.82635,1026.9794L786.82196,1026.9799L786.80054,1026.981L786.8018,1026.9808Q786.6989,1026.9818,786.5941,1026.9843L786.58386,1026.9856C786.5783,1026.9854,786.57275,1026.9851,786.5672,1026.9851L786.55664,1026.9851C786.54675,1026.9851,786.53687,1026.9858,786.52734,1026.987C786.4647,1026.9949,786.4072,1027.0271,786.368,1027.0775C786.32275,1027.1357,786.307,1027.2115,786.32513,1027.2831L798.9095,1081.2311L798.90967,1081.2311C800.1603,1086.5935,806.20776,1090.8503,813.8466,1089.8917C814.4703,1089.8135,815.1092,1089.6997,815.7527,1089.5496C815.7545,1089.5493,815.7563,1089.5487,815.7582,1089.5482L815.75305,1089.5488C824.2445,1087.5685,828.4959,1080.4988,827.19415,1074.7103L827.1834,1074.7117C827.18555,1074.6869,827.18384,1074.6617,827.17804,1074.637L813.64294,1016.6111C813.61505,1016.49194,813.5018,1016.41296,813.38025,1016.4282 Z"/> </g> <g style="fill:rgb(34,43,50); fill-opacity:0.99607843; stroke-linejoin: miter"> <path d="M349.17917,996.2577L349.17917,996.2583L349.17917,996.2577L349.17917,996.2577L349.17917,996.2583L349.17917,996.2577L349.17917,996.2577Q349.17917,996.2577,349.17917,996.2577 Z"/> </g> <g style="fill:rgb(34,43,50); fill-opacity:0.99607843; stroke-linejoin: miter"> <path d="M349.17917,996.2577L349.17917,996.2583L349.17917,996.2577L349.17917,996.2577L349.17917,996.2583L349.17917,996.2577L349.17917,996.2577Q349.17917,996.2577,349.17917,996.2577 Z"/> </g> <g style="fill:rgb(34,43,50); fill-opacity:0.99607843; stroke-linejoin: miter"> <path d="M349.17917,996.2577L349.17917,996.2583L349.17917,996.2577L349.17917,996.2577L349.17917,996.2583L349.17917,996.2577L349.17917,996.2577Q349.17917,996.2577,349.17917,996.2577 Z"/> </g> <g style="fill:rgb(34,43,50); fill-opacity:0.99607843; stroke-linejoin: miter"> <path d="M349.17917,996.2577L349.17917,996.2583L349.17917,996.2577L349.17917,996.2577L349.17917,996.2583L349.17917,996.2577L349.17917,996.2577Q349.17917,996.2577,349.17917,996.2577 Z"/> </g> <g style="fill:rgb(255,255,255); fill-opacity:0.99607843; stroke-linejoin: miter"> <path d="M264.34357,927.30853L450.70102,940.1593L637.0585,953.01025L626.0609,1112.4883Q439.70358,1099.6375,253.34613,1086.7872Q258.8448,1007.04736,264.34357,927.30853"/> </g> <g style="fill:rgb(55,72,80); fill-opacity:0.99607843; stroke-linejoin: miter"> <path d="M265.99557,902.7095L452.39102,915.5627L638.7873,928.4157Q637.4886,947.2469,636.18994,966.0773Q449.79416,953.22406,263.3985,940.3717Q264.69678,921.5399,265.99557,902.7095"/> </g> <g style="fill:rgb(255,0,0); fill-opacity:0.99607843; stroke-linejoin: miter"> <path d="M292.368,1066.1772L292.36798,1066.1781Q322.19257,1021.44104,352.0167,976.70386Q375.41794,1025.1115,398.8194,1073.5186L292.36798,1066.1781"/> </g> <g style="fill:rgb(255,255,255); fill-opacity:1.0; stroke-linejoin: miter"> <path d="M344.41428,998.0925L343.85654,1043.6447L347.71332,1043.9103L353.7161,998.73315 Z M345.79153,1046.437Q343.3715,1046.2704,342.29968,1047.4878Q341.14722,1048.7766,340.95142,1050.5107Q340.9072,1052.2554,341.80173,1053.609Q342.7718,1054.9674,345.1917,1055.134Q347.46042,1055.2902,348.53226,1054.0724Q349.60403,1052.8545,349.8753,1051.1252Q349.84396,1049.3762,348.94952,1048.022Q348.06027,1046.5936,345.79153,1046.437 Z"/> </g> <g style="fill:rgb(0,0,0); fill-opacity:1.0; stroke-linejoin: miter"> <path d="M463.09085,1008.0679Q467.40988,1008.3657,469.4052,1010.16846Q471.4471,1012.025,471.22556,1015.23926Q471.1076,1016.94653,470.46667,1018.1892Q469.82776,1019.4072,468.6036,1020.3313Q467.27344,1021.3252,465.73395,1021.698Q464.09195,1022.08923,461.832,1021.9331L457.16147,1021.6122L458.11877,1007.72534 Z M497.49292,1010.4403Q501.81207,1010.7383,503.8073,1012.5409Q505.84924,1014.3967,505.6277,1017.61096Q505.5097,1019.3185,504.86884,1020.56165Q504.22986,1021.77905,503.00574,1022.70374Q501.67554,1023.6969,500.1361,1024.0703Q498.49414,1024.4615,496.2343,1024.3059L491.5636,1023.9839L492.52087,1010.09717 Z M570.66675,1015.4861Q574.9859,1015.78394,576.9808,1017.58655Q579.023,1019.4431,578.80096,1022.6575Q578.6834,1024.3647,578.0427,1025.6072Q577.4037,1026.8254,576.17944,1027.7494Q574.84937,1028.7424,573.30975,1029.1158Q571.6676,1029.5071,569.40765,1029.3518L564.7369,1029.0305L565.6948,1015.14355 Z M535.80566,1013.183Q538.86926,1013.3948,541.1874,1014.5377Q543.5302,1015.6832,545.1098,1017.6592Q546.54877,1019.474,547.35596,1022.40625Q548.0998,1025.1567,547.8627,1028.5978L547.9127,1028.6019Q547.6791,1031.9913,546.56464,1034.6141Q545.45026,1037.2362,543.6414,1038.9532Q541.7787,1040.7173,539.32587,1041.5323Q536.7438,1042.3885,533.85583,1042.1895Q530.968,1041.9905,528.52795,1040.7877Q526.21014,1039.6439,524.60724,1037.641Q522.98096,1035.6116,522.2574,1032.9375Q521.5131,1030.1873,521.747,1026.7972Q521.98425,1023.3562,523.0987,1020.73376Q524.2131,1018.11096,526.07556,1016.3469Q527.9112,1014.60645,530.3896,1013.7932Q532.84235,1012.9783,535.80566,1013.183 Z M419.61584,1001.1593L419.46698,1003.319Q419.40955,1004.147,420.15286,1004.35Q420.59433,1004.53186,423.04947,1005.15576L421.02335,1034.535L418.04712,1034.8848Q417.28342,1034.9835,417.2262,1035.8121L417.0773,1037.9718L443.49405,1039.7938L444.08307,1031.2562L441.62228,1031.0869Q440.61765,1031.0164,440.4349,1031.8364Q440.41418,1032.1384,439.879,1035.5072L426.0931,1034.5575L426.9624,1021.9509L440.5222,1022.8873L440.79086,1018.99365L427.23087,1018.0602L428.07596,1005.8053L441.86172,1006.7571Q441.86423,1007.8157,441.8972,1008.8014Q441.93018,1009.78784,441.9494,1010.2428Q441.94318,1010.6969,441.9397,1010.7467Q442.02972,1011.63635,442.95886,1011.70105L445.41968,1011.87085L446.0329,1002.9806 Z M449.7562,1003.13696L449.60034,1005.39685Q449.54843,1006.1504,450.28967,1006.3773Q450.73456,1006.5094,453.2361,1007.1865L451.2153,1036.4907L448.18378,1036.9122Q447.41873,1037.0365,447.36652,1037.7899L447.21414,1040.0002L459.59384,1040.8545L459.74628,1038.6436Q459.76904,1038.3173,459.53687,1038.0233Q459.32797,1037.7565,458.9816,1037.6572Q458.58673,1037.5287,456.16217,1036.8322L456.96213,1025.2303L460.2517,1025.4584Q461.33163,1025.5317,461.76276,1025.8646Q462.26562,1026.2523,462.63144,1026.8079L471.29135,1040.625Q471.81955,1041.7463,473.17545,1041.8402L478.52405,1042.2098L478.68,1039.9493Q478.732,1039.1954,477.96558,1038.9663L478.01596,1038.9705Q477.7698,1038.8773,475.16263,1038.2683L467.9558,1026.7963Q467.34525,1025.7703,466.40387,1025.1509Q468.29007,1024.8763,470.3231,1023.9321Q472.04285,1023.14185,473.3216,1021.79175Q474.60083,1020.44226,475.3177,1018.82605Q476.06647,1017.11255,476.19275,1015.2788Q476.35562,1012.91833,475.70898,1010.9564Q475.08197,1009.07153,473.47134,1007.5476Q471.88416,1006.0503,469.39465,1005.1975Q466.7814,1004.31104,463.36636,1004.07544 Z M484.15826,1005.5089L484.00244,1007.7687Q483.95056,1008.5222,484.69183,1008.7506Q485.13666,1008.88184,487.63843,1009.5582L485.6176,1038.8627L482.58582,1039.2847Q481.82086,1039.4084,481.76868,1040.1617L481.61615,1042.372L493.99597,1043.226L494.14832,1041.0154Q494.17114,1040.6895,493.93878,1040.3956Q493.72998,1040.1287,493.38367,1040.0289Q492.98907,1039.9012,490.56433,1039.204L491.36432,1027.603L494.6538,1027.8307Q495.73376,1027.9043,496.1648,1028.2369Q496.6682,1028.6249,497.0335,1029.1798L505.69336,1042.9977Q506.22174,1044.1188,507.57764,1044.2125L512.9261,1044.5822L513.0821,1042.3208Q513.1341,1041.568,512.3676,1041.3385L512.418,1041.3427Q512.1722,1041.2491,509.56476,1040.6407L502.3579,1029.1687Q501.74738,1028.1427,500.8061,1027.5225Q502.6922,1027.2488,504.72522,1026.3037Q506.44495,1025.5142,507.7237,1024.1642Q509.00287,1022.8141,509.7199,1021.1986Q510.4687,1019.48425,510.59485,1017.65137Q510.7578,1015.2909,510.11115,1013.3291Q509.48425,1011.44324,507.87347,1009.91956Q506.28632,1008.4227,503.79675,1007.5702Q501.18372,1006.6835,497.76843,1006.44775 Z M557.33185,1010.5552L557.1761,1012.81506Q557.12396,1013.5679,557.8653,1013.79565Q558.31036,1013.9276,560.8119,1014.6046L558.79095,1043.909L555.7597,1044.3303Q554.9943,1044.4543,554.9422,1045.2079L554.7898,1047.4181L567.1697,1048.2719L567.3221,1046.061Q567.3445,1045.7351,567.1126,1045.4413Q566.90356,1045.1746,566.55743,1045.0753Q566.1626,1044.9476,563.738,1044.2501L564.5379,1032.6487L567.8276,1032.8763Q568.9075,1032.95,569.3385,1033.2828Q569.8418,1033.6713,570.20734,1034.2261L578.8671,1048.0433Q579.3955,1049.1644,580.75134,1049.2584L586.0998,1049.6276L586.25555,1047.3665Q586.3078,1046.6134,585.5412,1046.3842L585.59143,1046.3883Q585.34546,1046.2953,582.73865,1045.6866L575.5316,1034.2146Q574.9211,1033.1882,573.9796,1032.5682Q575.86584,1032.2952,577.89886,1031.3501Q579.61835,1030.5598,580.8973,1029.2101Q582.1764,1027.8605,582.8933,1026.2443Q583.64233,1024.5304,583.76874,1022.6968Q583.9314,1020.3363,583.2847,1018.3745Q582.6577,1016.4896,581.0473,1014.9658Q579.45984,1013.4685,576.9707,1012.6156Q574.3572,1011.729,570.9423,1011.4934 Z M536.21063,1008.7704Q532.21814,1008.4955,528.70636,1009.6659Q525.27094,1010.81665,522.6873,1013.16174Q520.10333,1015.5067,518.55884,1018.8812Q516.987,1022.2794,516.7032,1026.3983Q516.4192,1030.5168,517.5096,1034.0984Q518.576,1037.6539,520.8138,1040.3318Q522.9559,1042.926,526.2993,1044.5693Q529.6908,1046.2422,533.6083,1046.5117Q537.5257,1046.7825,541.11475,1045.5913Q544.5499,1044.4406,547.07983,1042.1426Q549.6637,1039.7983,551.2082,1036.4221Q552.72107,1033.1455,553.0101,1028.9521L553.06744,1028.8552Q553.36005,1024.612,552.31134,1021.15857Q551.2448,1017.603,549.0073,1014.92615Q546.8649,1012.33093,543.52167,1010.68713Q540.2037,1009.04553,536.21063,1008.7704 Z"/> </g> <g style="fill:rgb(255,0,0); fill-opacity:0.99607843; stroke-linejoin: miter"> <path d="M290.05157,925.93317L289.9074,926.9878Q289.17953,930.1568,286.58755,931.9069Q283.9784,933.65594,280.64734,933.06116Q277.4789,932.33295,275.72824,929.7415Q275.1674,928.9042,274.83374,927.9385L274.56525,926.9521Q274.35806,925.9381,274.4297,924.85596Q274.74237,921.5427,277.09827,919.49115Q279.45438,917.43866,282.77924,917.5838Q286.09286,917.8961,288.1447,920.2519Q290.19684,922.60785,290.05157,925.93317"/> </g> <g style="fill:rgb(0,0,0); fill-opacity:1.0; stroke-linejoin: miter"> <path d="M418.8344,1191.3667L418.8344,1191.3672L418.83414,1191.3674L418.8344,1191.3667 Z"/> </g> <g style="fill:rgb(103,118,120); fill-opacity:0.99607843; stroke-linejoin: miter"> <path d="M1048.569,1392.7294L1048.6088,1392.7454L1055.6627,1399.8861L1055.6632,1399.8877L1061.9663,1406.3372L1061.9268,1406.4316L917.69696,1405.3995L917.6957,1405.3982L772.5745,1404.2777L772.5214,1404.2368L771.1302,1399.14L771.1302,1399.1407L771.1286,1399.1343C770.4259,1396.6493,770.0303,1394.5743,769.98956,1393.7848L769.9964,1393.7855L770.02637,1393.8202L770.0343,1393.7166C773.7858,1393.4401,806.4177,1393.2548,845.64264,1393.1128L845.64844,1393.1136L845.64905,1393.112L850.90314,1393.1025L852.0953,1393.1007L853.3058,1393.0986C894.755,1393.0283,951.9278,1392.9312,985.0558,1392.8275L985.06067,1392.8278L985.0609,1392.8268L1048.569,1392.7294 Z"/> </g> <g style="fill:rgb(103,118,120); fill-opacity:0.99607843; stroke-linejoin: miter"> <path d="M680.5856,1391.5331L680.58777,1391.534C681.2708,1391.5583,682.7506,1391.6168,685.0576,1391.7106L685.0592,1391.7096L693.91064,1392.068L710.97974,1392.7585L710.9815,1392.757C726.342,1393.3746,739.10376,1393.976,740.9794,1394.1802L740.97314,1394.2947L740.98,1394.2949C740.98157,1394.2986,740.983,1394.3019,740.98425,1394.3053L740.98425,1394.3063L741.03644,1394.228C741.3144,1394.9015,742.0354,1397.0754,742.7787,1399.6333L742.7787,1399.6339L744.15796,1404.4302L744.0826,1404.529L680.1696,1404.1445L680.09247,1404.0658L680.1305,1397.752C680.1491,1394.7257,680.32227,1392.3732,680.5016,1391.5933L680.57806,1391.5325 Z"/> </g> <g style="fill:rgb(0,0,0); fill-opacity:0.99607843; stroke-linejoin: miter"> <path d="M1003.45874,1396.7606L1003.4585,1396.7627L1003.459,1396.7614L1003.45874,1396.7606 Z"/> </g> <g style="fill:rgb(255,255,255); fill-opacity:0.99607843; stroke-linejoin: miter"> <path d="M1211.979,1348.5503L1211.979,1348.5508Q1211.979,1348.5519,1211.979,1348.5503 Z"/> </g> <g style="fill:rgb(255,255,255); fill-opacity:1.0; stroke-linejoin: miter"> <path d="M1053.3403,1480.2483L1053.3403,1480.2485L1053.3403,1480.2483 Z"/> </g> <g style="fill:rgb(60,70,79); fill-opacity:0.99607843; stroke-linejoin: miter"> <path d="M1173.2296,908.8177L1173.2296,908.8182L1173.2296,908.8205L1173.2296,908.8182L1173.2296,908.8177L1173.2296,908.8182L1173.2296,908.8205Q1173.2296,908.8182,1173.2296,908.8177 Z"/> </g> <g style="fill:rgb(60,70,79); fill-opacity:0.99607843; stroke-linejoin: miter"> <path d="M1161.0466,894.3201L1161.0466,894.3201L1161.0466,894.3204L1161.0466,894.3201L1161.0466,894.3201L1161.0466,894.3201L1161.0466,894.3204Q1161.0466,894.3201,1161.0466,894.3201 Z"/> </g> <g style="fill:rgb(34,43,50); fill-opacity:1.0; stroke-linejoin: miter"> <path d="M1167.9066,908.5135L1167.9116,908.5161L1167.9116,908.5145L1167.9116,908.5135L1167.9066,908.5161 Z M680.1381,1391.5842C680.1807,1391.5953,680.2183,1391.5984,680.25275,1391.5984L680.2535,1391.5995L680.14545,1391.5842 Z M769.7247,1393.807C769.7048,1393.81,769.6961,1393.813,769.6961,1393.8137L769.6996,1393.8147C769.70514,1393.8137,769.716,1393.8116,769.7314,1393.807 Z M741.17224,1394.2856C741.18134,1394.288,741.1883,1394.289,741.19165,1394.2898L741.194,1394.2903C741.194,1394.289,741.18933,1394.2875,741.17975,1394.2856 Z M1048.569,1392.7844L985.0609,1392.8818L985.06226,1392.8826C951.2688,1392.9875,892.5468,1393.087,850.9035,1393.1586L845.64923,1393.1671L845.64996,1393.1692C806.4167,1393.3108,773.7907,1393.4956,770.03815,1393.7726L770.04474,1393.7737C770.0826,1394.5508,770.47723,1396.626,771.1825,1399.119L771.1843,1399.1238L772.5751,1404.222L917.6974,1405.3427L917.69727,1405.3431L1061.9271,1406.377L1055.6234,1399.9254L1048.569,1392.7844 Z M680.57733,1391.6106C680.4006,1392.381,680.22687,1394.7255,680.20856,1397.752L680.17053,1404.0658L744.08276,1404.4521L742.704,1399.6548C741.9601,1397.0968,741.23883,1394.9219,740.96436,1394.2559L740.97095,1394.2561C739.09796,1394.0536,726.3422,1393.4521,710.9779,1392.8351L710.9779,1392.8353L693.9078,1392.145L685.0561,1391.7871L685.0561,1391.7878C682.7891,1391.6958,681.2265,1391.6344,680.5853,1391.6108 Z M1169.8578,1464.4232L1169.861,1464.4237L1169.864,1464.4232L1169.8578,1464.4237 Z M1162.9825,908.40314C1162.9851,908.4029,1162.9882,908.4029,1162.9913,908.40314L1167.9116,908.5135L1167.9116,908.5145L1167.9211,908.5135C1170.6022,908.6112,1179.1459,909.14667,1186.8934,909.75964L1186.8937,909.75964L1186.932,909.7617L1186.932,909.763L1186.9707,909.7653L1186.9707,909.76587C1201.0623,910.81744,1201.239,910.8459,1230.2656,918.99524L1230.2656,918.99603C1256.8279,926.34094,1259.9513,927.2116,1259.4745,929.4101L1259.4666,929.44037L1259.467,929.44135C1259.0264,931.5148,1240.2693,1044.8809,1217.6069,1182.4567L1209.1443,1233.851L1202.6229,1273.4589C1173.9253,1447.7372,1171.4366,1462.6995,1170.5342,1464.066L1170.5342,1464.0663C1170.3685,1464.3173,1170.1534,1464.4092,1169.9454,1464.4221L1169.9478,1464.4224C1169.777,1464.6139,1169.5098,1465.4039,1169.5027,1466.5488L1169.4885,1468.8901C1169.4878,1469.0354,1169.4293,1469.1726,1169.3268,1469.2737C1169.2241,1469.3757,1169.0851,1469.4319,1168.9407,1469.4314L632.6988,1466.1803C632.40454,1466.1782,632.1646,1465.943,632.158,1465.6482L631.77747,1448.5459C631.51166,1439.1794,631.38275,1420.4489,631.464,1406.9762L631.61206,1382.5331C631.614,1382.2328,631.8594,1381.9907,632.1601,1381.9917L1080.9714,1384.71L1080.9908,1381.5431L1081.0128,1377.832C1081.0146,1377.6338,1081.1237,1377.451,1081.2994,1377.3562C1081.3811,1377.3123,1081.4708,1377.2908,1081.5604,1377.2908C1081.6631,1377.2914,1081.7649,1377.3213,1081.8535,1377.3789L1083.8625,1378.6818L1083.8776,1378.6918C1084.4487,1379.0895,1084.8365,1379.2706,1085.0565,1379.3351L1085.0565,1379.3365C1085.9398,1372.3464,1117.3958,1182.2228,1118.2054,1178.9307L1118.2046,1178.9309C1118.2023,1178.9307,1118.2284,1178.8257,1118.2948,1178.7246L1118.2936,1178.7252C1118.4388,1178.5096,1118.6887,1178.4673,1118.7021,1178.4652L1118.7019,1178.466C1118.9176,1178.4176,1119.3226,1178.4071,1119.8033,1178.4102C1121.9977,1178.4238,1127.2784,1178.7487,1133.3041,1179.2198L1133.3057,1179.2214C1139.0718,1179.6254,1142.5604,1179.8452,1144.8175,1179.8582C1147.4794,1179.8744,1148.3134,1179.6011,1149.0992,1179.0829L1149.1111,1179.0759C1151.0677,1177.8602,1151.9851,1175.2275,1151.2592,1172.8546L1151.2582,1172.8507C1150.526,1170.4037,1147.0964,1169.3497,1133.3878,1168.6096L1133.3885,1168.6104C1125.9535,1168.276,1121.4175,1167.7717,1120.5393,1167.1288L1120.5391,1167.1295C1120.4269,1167.0469,1120.2101,1166.8533,1120.2122,1166.5336C1120.2124,1166.5032,1120.2152,1166.4742,1120.2158,1166.4698L1120.2155,1166.469C1120.3315,1165.2911,1129.7635,1107.335,1141.3328,1037.1696L1141.3328,1037.1703L1162.4417,908.8593C1162.4852,908.5944,1162.7147,908.40137,1162.9825,908.40314 Z"/> </g> <g style="fill:rgb(34,43,50); fill-opacity:0.99607843; stroke-linejoin: miter"> <path d="M1135.3054,1127.5894L1129.1338,1127.1252L1122.9619,1126.6605Q1120.102,1164.6533,1117.2412,1202.6449Q1123.4131,1203.1099,1129.5847,1203.5756Q1132.4453,1165.5831,1135.3054,1127.5894 Z"/> </g> <g style="fill:rgb(68,197,229); fill-opacity:0.99607843; stroke-linejoin: miter"> <path d="M1227.073,942.6137L1197.0039,933.19354L1166.9352,923.7732L1096.2314,1371.1807Q1122.0876,1396.8839,1147.9437,1422.587L1227.073,942.6137 Z"/> </g> <g style="fill:rgb(103,118,120); fill-opacity:0.99607843; stroke-linejoin: miter"> <path d="M59.11766,1392.7285L59.078255,1392.7454L52.02382,1399.8854L52.02356,1399.8875L45.72,1406.3365L45.760315,1406.4314L189.98975,1405.3998L189.9909,1405.3982L335.11246,1404.278L335.16528,1404.2368L336.55658,1399.14L336.55658,1399.141L336.55786,1399.1343C337.26068,1396.6495,337.6567,1394.5743,337.69702,1393.7843L337.6903,1393.7855L337.66046,1393.8207L337.6527,1393.7166C333.9009,1393.4395,301.26913,1393.2545,262.04425,1393.1132L262.03818,1393.1139L262.03778,1393.1116L256.78345,1393.103L255.59131,1393.101L254.38068,1393.0984C212.93196,1393.0283,155.75867,1392.9312,122.63083,1392.8278L122.62631,1392.8284L122.6254,1392.8263L59.11766,1392.7285 Z"/> </g> <g style="fill:rgb(103,118,120); fill-opacity:0.99607843; stroke-linejoin: miter"> <path d="M427.101,1391.5331L427.0991,1391.5345C426.41605,1391.5583,424.93652,1391.6168,422.62924,1391.7106L422.6277,1391.709L413.7761,1392.0675L396.70703,1392.7585L396.70547,1392.7574C381.34476,1393.3749,368.58258,1393.976,366.707,1394.1802L366.71332,1394.2947L366.7066,1394.2954C366.70505,1394.2986,366.7039,1394.3019,366.7021,1394.3055L366.7021,1394.3063L366.65002,1394.2285C366.3722,1394.902,365.65118,1397.0762,364.90793,1399.6339L364.90793,1399.6362L363.52866,1404.4302L363.604,1404.5299L427.51697,1404.1448L427.59436,1404.0658L427.55637,1397.752C427.53778,1394.7257,427.3645,1392.3732,427.185,1391.5938L427.10852,1391.5331 Z"/> </g> <g style="fill:rgb(0,0,0); fill-opacity:0.99607843; stroke-linejoin: miter"> <path d="M104.227844,1396.7606L104.22797,1396.7627L104.227585,1396.7614L104.227844,1396.7606 Z"/> </g> <g style="fill:rgb(255,255,255); fill-opacity:0.99607843; stroke-linejoin: miter"> <path d="M14.205048,1322.8727L14.205177,1322.8729Q14.205177,1322.8737,14.205048,1322.8727 Z"/> </g> <g style="fill:rgb(255,255,255); fill-opacity:1.0; stroke-linejoin: miter"> <path d="M54.346092,1480.2476L54.346092,1480.2485L54.346092,1480.2476 Z"/> </g> <g style="fill:rgb(60,70,79); fill-opacity:0.99607843; stroke-linejoin: miter"> <path d="M-65.541565,908.8169L-65.541565,908.8177L-65.541565,908.81793L-65.541565,908.8177L-65.541565,908.8169L-65.541565,908.8177L-65.541565,908.81793Q-65.541565,908.8177,-65.541565,908.8169 Z"/> </g> <g style="fill:rgb(60,70,79); fill-opacity:0.99607843; stroke-linejoin: miter"> <path d="M-53.358017,894.3201L-53.358017,894.32245L-53.357887,894.3209L-53.358017,894.3201L-53.358017,894.32245L-53.358017,894.3201L-53.357887,894.3209Q-53.358017,894.3201,-53.358017,894.3201 Z"/> </g> <g style="fill:rgb(34,43,50); fill-opacity:1.0; stroke-linejoin: miter"> <path d="M-60.219017,908.51276L-60.22367,908.51324L-60.22367,908.5145L-60.22367,908.51324L-60.219017,908.51276 Z M427.5486,1391.584C427.50623,1391.5953,427.46826,1391.5984,427.43402,1391.5986L427.4331,1391.5995L427.541,1391.584 Z M337.9619,1393.8065C337.9821,1393.8107,337.99075,1393.813,337.99075,1393.814L337.98712,1393.8147C337.98145,1393.8137,337.97034,1393.8116,337.95532,1393.8065 Z M366.5142,1394.2856C366.5049,1394.288,366.49844,1394.2898,366.4951,1394.2898L366.49277,1394.2905C366.49277,1394.2898,366.497,1394.288,366.50684,1394.2856 Z M59.11766,1392.7842L122.62514,1392.8818L122.6245,1392.8826C156.4178,1392.9875,215.14014,1393.0878,256.78333,1393.1586L262.03766,1393.1671L262.03662,1393.1678C301.26993,1393.3108,333.89612,1393.4951,337.64844,1393.7721L337.64172,1393.7734C337.60425,1394.5508,337.20963,1396.626,336.50412,1399.1199L336.5027,1399.1243L335.11166,1404.222L189.98909,1405.3427L189.98975,1405.3431L45.759796,1406.3759L52.063225,1399.9249L59.11766,1392.7842 Z M427.1094,1391.6108C427.2862,1392.3815,427.45984,1394.7255,427.47833,1397.752L427.5162,1404.0658L363.6036,1404.4521L364.98285,1399.6548C365.7265,1397.097,366.44778,1394.9219,366.7225,1394.2559L366.7154,1394.2567C368.5885,1394.0536,381.3446,1393.4524,396.7087,1392.8351L396.7087,1392.8353L413.77945,1392.145L422.63077,1391.7874L422.63077,1391.7878C424.8975,1391.6958,426.45996,1391.6344,427.1014,1391.6108 Z M-62.171356,1464.4224L-62.1742,1464.4232L-62.17743,1464.4224L-62.171356,1464.4232 Z M-55.294067,908.4024C-55.29704,908.4024,-55.30001,908.4024,-55.303112,908.4029L-60.22367,908.51324L-60.22367,908.5145L-60.2331,908.51324C-62.91434,908.6112,-71.45851,909.1469,-79.20593,909.7594L-79.20593,909.75964L-79.24392,909.7615L-79.24392,909.76276L-79.28294,909.7651L-79.282814,909.76587C-93.374756,910.81616,-93.55139,910.8456,-122.578094,918.995L-122.578094,918.99554C-149.1398,926.3407,-152.26328,927.21136,-151.7864,929.4101L-151.77872,929.4398L-151.7793,929.4406C-151.33817,931.5143,-132.58176,1044.8804,-109.91975,1182.4559L-101.457375,1233.8507L-94.93596,1273.4589C-66.238434,1447.7362,-63.750378,1462.6992,-62.847546,1464.066L-62.847546,1464.0668C-62.681892,1464.3173,-62.466614,1464.4087,-62.258575,1464.4221L-62.26155,1464.4224C-62.09047,1464.6134,-61.82299,1465.4034,-61.81627,1466.5488L-61.801926,1468.8901C-61.80102,1469.0347,-61.742744,1469.1724,-61.64002,1469.2737C-61.537422,1469.3752,-61.398643,1469.4319,-61.25418,1469.4305L474.9878,1466.1805C475.2823,1466.1782,475.52213,1465.943,475.52884,1465.6482L475.90936,1448.5466C476.17493,1439.1794,476.30386,1420.4493,476.2226,1406.9762L476.07452,1382.5339C476.07257,1382.2328,475.8272,1381.9907,475.52652,1381.9917L26.715118,1384.71L26.696,1381.5431L26.673515,1377.832C26.672352,1377.6338,26.562649,1377.4513,26.387691,1377.3562C26.305767,1377.3123,26.215832,1377.2908,26.126026,1377.2908C26.023685,1377.2914,25.921864,1377.3213,25.832966,1377.3789L23.82391,1378.6818L23.809177,1378.6923C23.23804,1379.0895,22.850266,1379.2706,22.630081,1379.3351L22.630207,1379.3365C21.746758,1372.3464,-9.708626,1182.2223,-10.518295,1178.9302L-10.5172615,1178.9307C-10.514935,1178.9302,-10.541166,1178.8254,-10.6078415,1178.7244L-10.606291,1178.7252C-10.751789,1178.5089,-11.001564,1178.467,-11.01539,1178.4652L-11.015261,1178.4657C-11.2305355,1178.4171,-11.635498,1178.4071,-12.115795,1178.4102C-14.310276,1178.4233,-19.591347,1178.7479,-25.617222,1179.2194L-25.61864,1179.2206C-31.384403,1179.6245,-34.87363,1179.8445,-37.130394,1179.8577C-39.792507,1179.8737,-40.62634,1179.6002,-41.412235,1179.0829L-41.42438,1179.0751C-43.380844,1177.86,-44.29802,1175.2268,-43.571957,1172.8539L-43.571053,1172.8507C-42.839428,1170.4034,-39.409252,1169.349,-25.700565,1168.6089L-25.701729,1168.6096C-18.26675,1168.2758,-13.7307415,1167.7712,-12.8522,1167.1288L-12.85207,1167.129C-12.739653,1167.0466,-12.522957,1166.8528,-12.524895,1166.5336C-12.525154,1166.5026,-12.527996,1166.4742,-12.528513,1166.4692L-12.528383,1166.469C-12.644421,1165.2908,-22.076176,1107.3342,-33.645943,1037.169L-33.645943,1037.1698L-54.753685,908.85876C-54.79736,908.5939,-55.026848,908.4006,-55.294067,908.4024 Z"/> </g> <g style="fill:rgb(34,43,50); fill-opacity:0.99607843; stroke-linejoin: miter"> <path d="M-27.618134,1127.5889L-21.446632,1127.1248L-15.274876,1126.6603Q-12.414803,1164.6527,-9.554213,1202.6449Q-15.725842,1203.1091,-21.897472,1203.5753Q-24.75806,1165.5824,-27.618134,1127.5889 Z"/> </g> <g style="fill:rgb(68,197,229); fill-opacity:0.99607843; stroke-linejoin: miter"> <path d="M-119.38509,942.6137L-89.3162,933.19305L-59.24744,923.7729L11.455196,1371.1807Q-14.40099,1396.8844,-40.257175,1422.5858L-119.38509,942.6137 Z"/> </g> <g style="fill:rgb(0,0,0); fill-opacity:0.19215687; stroke-linejoin: miter"> <path d="M1322.7429,1454.7976L1315.8206,1460.542Q1266.609,1477.9052,1027.8334,1488.3153Q787.40497,1498.716,461.5927,1496.7502Q150.64725,1494.0021,-35.78151,1480.6691Q-95.515495,1476.3594,-134.18643,1471.2769L-166.68842,1466.0526Q-193.47316,1460.659,-193.77417,1454.7971Q-185.64316,1436.8053,28.31443,1424.8579Q242.27234,1412.9114,564.4841,1412.4578Q886.69617,1412.9114,1100.6539,1424.8582Q1314.6119,1436.8058,1322.7429,1454.7976 Z"/> </g> <g style="fill:rgb(255,186,158); fill-opacity:1.0; stroke-linejoin: miter"> <path d="M256.97043,946.84033L256.97043,946.8409C257.41635,946.80054,257.87753,946.8556,258.35382,947.0068C257.87753,946.8556,257.41635,946.80054,256.97043,946.84033C256.52463,946.88043,256.0937,947.0153,255.67789,947.2461L255.67813,947.2474C256.09384,947.01605,256.52463,946.8807,256.97043,946.84033L256.97095,946.8419L256.97043,946.84033 Z M232.97433,991.01196L232.97433,991.0127C232.98428,991.01086,232.99371,991.0139,233.00235,991.02014C232.99371,991.0139,232.98428,991.01086,232.97433,991.01196C232.96463,991.0127,232.95392,991.0178,232.94266,991.02563L232.94318,991.02686C232.95392,991.0178,232.96463,991.0127,232.97433,991.01196L232.97482,991.0134L232.97433,991.01196 Z M260.78555,1077.7052L260.78555,1077.7064L260.78592,1077.7068C257.0176,1079.1018,248.43222,1081.2865,235.03015,1084.2604L235.03055,1084.2618C248.43259,1081.2871,257.01746,1079.101,260.78555,1077.7052L260.78592,1077.7068L260.78555,1077.7052 Z M191.9497,1039.3326L191.9497,1039.3339L231.39026,1085.0618L231.3905,1085.0627C231.18042,1085.1074,230.96939,1085.1532,230.75723,1085.1997C230.62051,1073.3909,200.09435,1069.1162,195.92647,1038.7131C196.32562,1037.5944,197.38675,1033.6938,225.45627,1018.667L225.45651,1018.6688L225.45651,1018.66785 Z M256.83746,945.43756L256.83746,945.43835C255.14435,945.5885,253.61057,946.7194,252.28168,948.8592C251.82361,949.59656,251.39825,950.3612,251.1907,951.19336C250.15039,955.372,249.4339,957.977,248.80655,958.95233L231.88193,990.11975C231.8739,990.11694,231.86551,990.1162,231.85712,990.11694C231.32605,990.1648,229.8407,996.62146,227.4011,1009.4878L223.85489,1018.9927L186.25514,1038.7281C184.69821,1037.4824,181.07628,1026.8386,188.23138,1038.9209C182.1599,1030.1257,181.63385,1052.5496,179.3444,1048.033C186.88559,1085.4882,229.51596,1073.4542,229.67014,1086.7079C249.9209,1082.5149,261.02524,1079.3054,263.5203,1077.9313C267.324,1075.8367,272.88638,1073.7799,279.27963,1070.0111C294.60364,1060.9763,303.48276,1055.6014,306.21747,1054.2751C311.5828,1051.673,320.92255,1047.6544,334.32617,1042.3263C335.93567,1041.6862,336.71628,1040.3529,336.98093,1038.6757C337.64908,1034.443,336.65967,1031.5328,333.8433,1029.9166C337.0954,1028.4402,338.39493,1026.22,337.7836,1023.24695C336.90622,1018.9807,335.55875,1016.0104,333.69946,1014.3447C336.25705,1009.365,337.11038,1005.7229,336.67648,1003.3296C336.1662,1000.516,334.9662,998.29297,332.6554,996.7256C334.18518,991.9684,333.27487,988.0272,330.2601,984.5979C327.8877,981.89856,325.26486,980.3707,322.04428,980.3074L266.18433,982.5012L259.708,986.218C259.54092,983.3734,259.3882,981.423,259.78775,980.5526C263.19852,973.12195,265.0864,966.26514,264.95407,959.73926C264.79758,952.0005,262.8397,947.3448,259.0658,945.7725L258.9698,945.7368C258.2308,945.4758,257.51974,945.3766,256.83746,945.43756L256.83786,945.43835L256.83746,945.43756 Z"/> </g> <g style="fill:rgb(255,255,255); fill-opacity:1.0; stroke-linejoin: miter"> <path d="M222.95193,1002.6444L196.37201,1010.7831L216.18823,1097.8141L240.89954,1094.7915L222.98384,1002.80835 Z"/> </g> <g style="fill:rgb(255,186,158); fill-opacity:1.0; stroke-linejoin: miter"> <path d="M897.8762,1033.0359L893.6687,1033.0051Q869.23663,1033.0935,862.9899,1029.5145Q825.3364,991.4337,810.52576,988.9176Q809.60016,988.6002,805.3292,988.47534L792.8103,989.3567Q772.6225,988.77,767.59467,989.82983Q754.30914,991.58716,739.33234,997.82007Q724.1338,1004.3602,720.148,1009.25415Q715.96136,1014.6908,721.79333,1016.5758Q727.29584,1017.6201,732.10504,1016.5045Q736.0961,1016.0858,759.06085,1009.62756Q764.6103,1008.2344,768.7014,1007.75244Q775.9109,1006.87805,783.2116,1008.0227Q765.4374,1018.3445,758.20416,1025.1921Q756.43634,1026.7178,752.55054,1030.8289L740.7262,1044.4355L731.0398,1054.5225Q725.1642,1061.6459,732.11523,1067.64Q738.13776,1069.739,743.72687,1064.9324Q744.964,1065.2756,771.0503,1038.6477Q778.366,1032.2968,785.28436,1029.2617L750.2696,1071.1558Q746.1108,1077.3793,746.27734,1079.1426Q745.9269,1081.8383,747.62445,1083.1873Q753.1465,1086.4885,763.7289,1077.1893Q773.07513,1068.9714,794.22577,1040.8041Q771.2927,1066.2163,767.7338,1073.7751Q763.6042,1081.5132,764.1328,1083.4949Q764.2994,1086.2428,767.195,1086.15Q772.6518,1085.5951,777.89294,1081.8153Q781.1223,1079.7003,786.6287,1073.3658L805.4337,1058.8303Q834.9739,1078.8154,845.9795,1080.8566Q850.52,1081.9044,854.42365,1081.8838Q860.2287,1081.7698,865.49603,1080.7539L890.5503,1081.3403L897.8762,1033.0359 Z"/> </g> <g style="fill:rgb(255,255,255); fill-opacity:1.0; stroke-linejoin: miter"> <path d="M877.7235,1012.5427L867.43414,1097.841L902.49146,1103.7551Q914.548,1065.0228,915.7811,1051.3588Q917.8708,1036.6775,912.45807,1018.7195L877.7235,1012.5427 Z"/> </g> <g style="fill:rgb(0,0,0); fill-opacity:1.0; stroke-linejoin: miter"> <path d="M891.8641,1005.1304L1045.2832,1024.9441L1198.702,1044.7578Q1191.8752,1097.617,1185.0491,1150.4757Q1031.63,1130.6632,878.21106,1110.8502Q885.0373,1057.9904,891.8641,1005.1304 Z"/> </g> <g style="fill:rgb(0,0,0); fill-opacity:1.0; stroke-linejoin: miter"> <path d="M-89.440254,1079.9644L208.46472,996.46436L237.23407,1099.1039L-60.670242,1182.6056L-89.440254,1079.9644 Z"/> </g> <g style="fill:rgb(36,36,36); fill-opacity:1.0; stroke-linejoin: miter"> <path d="M256.89157,1021.75464L256.89142,1021.7551L256.89142,1021.7551L256.89157,1021.75464"/> </g> <g style="fill:rgb(145,145,145); fill-opacity:0.99607843; stroke-linejoin: miter"> <path d="M296.4272,924.8164L315.3542,926.1219L334.2813,927.42737Q334.10138,930.0315,333.92206,932.6357Q314.9951,931.33075,296.0681,930.0253Q296.24783,927.4212,296.4272,924.8164"/> </g> <g style="fill:rgb(255,254,254); fill-opacity:1.0; stroke-linejoin: miter"> <path d="M260.5196,985.6627L260.5196,985.6627L263.1094,943.30005Q269.6818,948.6678,276.25418,954.0355L260.5196,985.6627"/> </g> <g style="fill:rgb(255,254,254); fill-opacity:1.0; stroke-linejoin: miter"> <path d="M892.7555,1164.0458L892.7554,1164.0465L892.7554,1164.047L892.7555,1164.0458"/> </g> </g> </svg>