<?xml version="1.0" encoding="utf-8"?>
<!-- Generator: Adobe Illustrator 22.1.0, SVG Export Plug-In . SVG Version: 6.00 Build 0)  -->
<svg version="1.1" id="Layer_1" xmlns="http://www.w3.org/2000/svg" xmlns:xlink="http://www.w3.org/1999/xlink" x="0px" y="0px"
	 viewBox="0 0 500 500" style="enable-background:new 0 0 500 500;" xml:space="preserve">
<style type="text/css">
	.st0{fill:#19DBCC;}
	.st1{fill-rule:evenodd;clip-rule:evenodd;fill:#335E8A;}
	.st2{fill-rule:evenodd;clip-rule:evenodd;fill:#9DB1C6;}
	.st3{fill-rule:evenodd;clip-rule:evenodd;fill:#B8C6D6;}
	.st4{fill-rule:evenodd;clip-rule:evenodd;fill:#335579;}
	.st5{fill-rule:evenodd;clip-rule:evenodd;fill:#FFFFFF;}
	.st6{fill-rule:evenodd;clip-rule:evenodd;fill:#D6D6D6;}
	.st7{fill-rule:evenodd;clip-rule:evenodd;fill:#006DFF;}
	.st8{fill-rule:evenodd;clip-rule:evenodd;fill:#B3B3B3;}
	.st9{fill-rule:evenodd;clip-rule:evenodd;fill:#4285F4;}
	.st10{fill-rule:evenodd;clip-rule:evenodd;fill:#EA4335;}
	.st11{fill-rule:evenodd;clip-rule:evenodd;fill:#FBBC05;}
	.st12{fill-rule:evenodd;clip-rule:evenodd;fill:#34A853;}
	.st13{fill-rule:evenodd;clip-rule:evenodd;fill:#03386E;}
	.st14{fill-rule:evenodd;clip-rule:evenodd;fill:#FFE679;}
	.st15{fill-rule:evenodd;clip-rule:evenodd;fill:#FFD086;}
	.st16{fill-rule:evenodd;clip-rule:evenodd;fill:#32618C;}
	.st17{fill-rule:evenodd;clip-rule:evenodd;fill:#FFBF58;}
	.st18{fill:#EDEDED;}
	.st19{fill-rule:evenodd;clip-rule:evenodd;fill:#FFCC74;}
	.st20{fill-rule:evenodd;clip-rule:evenodd;fill:#FFE4B5;}
	.st21{fill:#FFA700;}
	.st22{fill-rule:evenodd;clip-rule:evenodd;fill:#FFCF39;}
	.st23{fill-rule:evenodd;clip-rule:evenodd;fill:#FF9600;}
	.st24{fill-rule:evenodd;clip-rule:evenodd;fill:#FF9629;}
	.st25{fill:#03386E;}
	.st26{fill-rule:evenodd;clip-rule:evenodd;fill:#3DAA26;}
	.st27{fill-rule:evenodd;clip-rule:evenodd;fill:#60BB4D;}
	.st28{fill-rule:evenodd;clip-rule:evenodd;fill:#F0A9A7;}
	.st29{fill:#FFFFFF;}
</style>
<rect x="0" y="0.5" class="st0" width="500" height="500"/>
<g id="Seo_Management_2_">
	<g id="Laptop">
		<path class="st1" d="M136.3,250.7h189c2.6,0,4.7,2.1,4.7,4.7V376H131.6V255.4C131.6,252.8,133.7,250.7,136.3,250.7L136.3,250.7z"
			/>
		<path class="st2" d="M141.7,257.5h178.2c1.5,0,2.7,1.2,2.7,2.7V376H139.1V260.1C139.1,258.7,140.3,257.5,141.7,257.5L141.7,257.5z
			"/>
		<path class="st3" d="M141.7,257.5h89.1V374h-91.8V260.1C139.1,258.7,140.3,257.5,141.7,257.5L141.7,257.5z"/>
		<path class="st4" d="M118.2,389.3c101.6,0,123.6,0,225.3,0c1.9,0,3-1.5,2.6-3.4l-2.2-8.5c-0.5-1.9-2.4-3.4-4.3-3.4
			c-99,0-118.4,0-217.4,0c-1.9,0-3.8,1.5-4.3,3.4l-2.2,8.5C115.2,387.8,116.3,389.3,118.2,389.3L118.2,389.3z"/>
	</g>
	<g id="Google_Pages">
		<path class="st5" d="M250.5,152.8h191.9c4.1,0,7.4,3.3,7.4,7.4V296c0,4.1-3.3,7.4-7.4,7.4H250.5c-4.1,0-7.4-3.4-7.4-7.4V160.2
			C243,156.2,246.4,152.8,250.5,152.8L250.5,152.8z"/>
		<rect x="254.2" y="182.5" class="st6" width="87.5" height="10.3"/>
		<rect x="254.2" y="206.4" class="st7" width="85.9" height="4.7"/>
		<rect x="254.2" y="215.9" class="st8" width="131.5" height="2.9"/>
		<rect x="254.2" y="223.3" class="st8" width="131.5" height="2.9"/>
		<rect x="254.2" y="238.7" class="st7" width="85.9" height="4.7"/>
		<rect x="254.2" y="248.2" class="st8" width="131.5" height="2.9"/>
		<rect x="254.2" y="255.7" class="st8" width="131.5" height="2.9"/>
		<path class="st9" d="M255,167.7h3.7c0.5,0,0.8,0.4,0.8,0.8v8.7c0,0.5-0.4,0.8-0.8,0.8H255c-0.5,0-0.8-0.4-0.8-0.8v-8.7
			C254.2,168,254.6,167.7,255,167.7L255,167.7z"/>
		<path class="st10" d="M261.5,167.7h3.7c0.5,0,0.8,0.4,0.8,0.8v8.7c0,0.5-0.4,0.8-0.8,0.8h-3.7c-0.5,0-0.8-0.4-0.8-0.8v-8.7
			C260.7,168,261,167.7,261.5,167.7L261.5,167.7z"/>
		<path class="st11" d="M268,167.7h3.7c0.5,0,0.8,0.4,0.8,0.8v8.7c0,0.5-0.4,0.8-0.8,0.8H268c-0.5,0-0.8-0.4-0.8-0.8v-8.7
			C267.2,168,267.6,167.7,268,167.7L268,167.7z"/>
		<path class="st9" d="M274.5,167.7h3.7c0.5,0,0.8,0.4,0.8,0.8v8.7c0,0.5-0.4,0.8-0.8,0.8h-3.7c-0.5,0-0.8-0.4-0.8-0.8v-8.7
			C273.7,168,274.1,167.7,274.5,167.7L274.5,167.7z"/>
		<path class="st12" d="M281,167.7h3.7c0.5,0,0.8,0.4,0.8,0.8v8.7c0,0.5-0.4,0.8-0.8,0.8H281c-0.5,0-0.8-0.4-0.8-0.8v-8.7
			C280.2,168,280.6,167.7,281,167.7L281,167.7z"/>
		<path class="st10" d="M287.5,167.7h3.7c0.5,0,0.8,0.4,0.8,0.8v8.7c0,0.5-0.4,0.8-0.8,0.8h-3.7c-0.5,0-0.8-0.4-0.8-0.8v-8.7
			C286.7,168,287.1,167.7,287.5,167.7L287.5,167.7z"/>
		<rect x="254.2" y="270.8" class="st7" width="85.9" height="4.8"/>
		<rect x="254.2" y="280.3" class="st8" width="131.5" height="2.9"/>
		<rect x="254.2" y="287.7" class="st8" width="131.5" height="2.9"/>
		<path class="st11" d="M407.2,159.5h6.3c0.8,0,1.4,0.6,1.4,1.4v6.7c0,0.8-0.6,1.4-1.4,1.4h-6.3c-0.7,0-1.4-0.6-1.4-1.4v-6.7
			C405.8,160.1,406.4,159.5,407.2,159.5L407.2,159.5z"/>
		<path class="st9" d="M420.5,159.5h6.3c0.8,0,1.4,0.6,1.4,1.4v6.7c0,0.8-0.6,1.4-1.4,1.4h-6.3c-0.8,0-1.4-0.6-1.4-1.4v-6.7
			C419,160.1,419.7,159.5,420.5,159.5L420.5,159.5z"/>
		<path class="st10" d="M433.7,159.5h6.3c0.8,0,1.4,0.6,1.4,1.4v6.7c0,0.8-0.6,1.4-1.4,1.4h-6.3c-0.8,0-1.4-0.6-1.4-1.4v-6.7
			C432.3,160.1,432.9,159.5,433.7,159.5L433.7,159.5z"/>
		<rect x="345.7" y="182.5" class="st6" width="13.5" height="10.3"/>
	</g>
	<g id="Horn">
		<path class="st13" d="M159.3,278.7l-3.2-0.7c-2-0.4-3.8,0.8-4.3,2.8l-2.6,12.7c-0.4,1.9,0.8,3.8,2.8,4.2l3.2,0.7
			c2,0.4,3.8-0.8,4.3-2.8L162,283C162.4,281,161.2,279.1,159.3,278.7L159.3,278.7z"/>
		<path class="st14" d="M187.2,223.1l-87.8-14.6c-3.2-0.5-6,0.6-7.7,2.9c1.7,1.1,2.9,3.2,2.9,5.6v65.2c0,2.4-1.2,4.5-2.9,5.6
			c1.7,2.2,4.5,3.4,7.7,2.9l87.8-14.6c3-0.5,5.7-2.4,7.4-5c1.2-1.4,1.9-3.3,1.9-5.4V265v-30.8v-0.6c0-2.2-0.7-4-1.9-5.4
			C192.9,225.6,190.2,223.6,187.2,223.1L187.2,223.1z"/>
		<polygon class="st15" points="196.5,238.7 99.6,224.7 99.6,247.1 196.5,261.1 		"/>
		<polygon class="st15" points="196.5,263.6 99.6,249.6 99.6,252.8 196.5,266.8 		"/>
		<path class="st16" d="M154.4,230.5L154.4,230.5c-3.1,2-4,6.2-2,9.3l13.1,20.2l-13.9,65c-0.8,3.6,1.5,7.2,5.1,8l0,0
			c3.6,0.8,7.2-1.6,8-5.2l14.9-70.1l-2.9-4.5l0-0.2l-13.3-20.4C161.7,229.4,157.5,228.5,154.4,230.5L154.4,230.5z"/>
		<path class="st17" d="M90.5,214c0,0.2,0,0.4,0,0.6c0,23.4,0,46.7,0,70.1c0,0.2,0,0.4,0,0.6h-0.2c-1.5,0-2.8-2.6-2.8-5.9v-59.5
			c0-3.2,1.2-5.9,2.8-5.9H90.5z"/>
		<path class="st18" d="M77.4,263.7c0.5-0.8,0.2-1.8-0.6-2.3c-0.8-0.5-1.8-0.2-2.3,0.6l-9.6,16.7c-0.5,0.8-0.2,1.8,0.6,2.3
			c0.8,0.5,1.8,0.2,2.3-0.6L77.4,263.7z M70.6,251.3c0.9,0,1.7-0.8,1.7-1.7c0-0.9-0.8-1.7-1.7-1.7H51.3c-0.9,0-1.7,0.8-1.7,1.7
			c0,0.9,0.8,1.7,1.7,1.7H70.6z M71.4,243.9c0.8,0.5,1.8,0.2,2.3-0.6c0.5-0.8,0.2-1.8-0.6-2.3l-16.7-9.6c-0.8-0.5-1.8-0.2-2.3,0.6
			c-0.5,0.8-0.2,1.8,0.6,2.3L71.4,243.9z M73,258.5c0.8-0.5,1.1-1.5,0.6-2.3c-0.5-0.8-1.5-1.1-2.3-0.6l-16.7,9.6
			c-0.8,0.5-1.1,1.5-0.6,2.3c0.5,0.8,1.5,1.1,2.3,0.6L73,258.5z M74.5,237.2c0.5,0.8,1.5,1.1,2.3,0.6c0.8-0.5,1.1-1.4,0.6-2.3
			l-9.6-16.7c-0.5-0.8-1.5-1.1-2.3-0.6c-0.8,0.5-1.1,1.5-0.6,2.3L74.5,237.2z"/>
	</g>
	<g id="Stopwatch">
		<path class="st19" d="M396.7,405.2c28.9,0,52.4-23.5,52.4-52.4c0-28.8-23.5-52.4-52.4-52.4c-28.9,0-52.4,23.5-52.4,52.4
			C344.4,381.7,367.9,405.2,396.7,405.2L396.7,405.2z"/>
		<path class="st20" d="M396.7,392.7c22,0,39.9-17.9,39.9-39.9c0-22-17.9-39.9-39.9-39.9c-22,0-39.9,17.9-39.9,39.9
			C356.9,374.8,374.8,392.7,396.7,392.7L396.7,392.7z"/>
		<path class="st21" d="M396.7,312.2c11.2,0,21.4,4.5,28.7,11.9c7.3,7.3,11.9,17.5,11.9,28.7c0,11.2-4.6,21.4-11.9,28.7
			c-7.4,7.3-17.5,11.9-28.7,11.9c-11.2,0-21.4-4.6-28.7-11.9c-7.4-7.4-11.9-17.5-11.9-28.7c0-11.2,4.5-21.4,11.9-28.7
			C375.4,316.8,385.5,312.2,396.7,312.2L396.7,312.2z M423.6,325.9c-6.9-6.9-16.4-11.1-26.9-11.1c-10.5,0-20,4.2-26.9,11.1
			c-6.9,6.9-11.1,16.4-11.1,26.9c0,10.5,4.2,20,11.1,26.9c6.9,6.9,16.4,11.1,26.9,11.1c10.5,0,20-4.3,26.9-11.1
			c6.9-6.9,11.2-16.4,11.2-26.9C434.8,342.3,430.5,332.8,423.6,325.9L423.6,325.9z"/>
		<path class="st22" d="M388.8,285.2h15.8c1.6,0,2.9,1.3,2.9,2.9v5.5c0,1.6-1.3,2.9-2.9,2.9h-15.8c-1.6,0-2.9-1.3-2.9-2.9V288
			C385.9,286.4,387.2,285.2,388.8,285.2L388.8,285.2z"/>
		<path class="st22" d="M343.3,310.5l11.1-11.1c1.1-1.1,3-1.1,4.1,0l3.9,3.9c1.1,1.1,1.1,3,0,4.1l-11.2,11.2c-1.1,1.1-3,1.1-4.1,0
			l-3.9-3.9C342.2,313.5,342.2,311.7,343.3,310.5L343.3,310.5z"/>
		<path class="st22" d="M439,299.4l11.2,11.1c1.1,1.1,1.1,3,0,4.1l-3.9,3.9c-1.1,1.1-3,1.1-4.1,0l-11.2-11.2c-1.1-1.1-1.1-3,0-4.1
			l3.9-3.9C436,298.3,437.9,298.3,439,299.4L439,299.4z"/>
		<rect x="394" y="296.4" class="st23" width="5.5" height="4.2"/>
		<polygon class="st23" points="354.9,314.9 358.8,311 361.8,314 357.9,317.8 		"/>
		
			<rect x="433.1" y="311.7" transform="matrix(0.7071 -0.7071 0.7071 0.7071 -94.8843 399.8035)" class="st23" width="4.2" height="5.5"/>
		<path class="st24" d="M380.8,376.1l12.3-21.3c-0.3-0.6-0.5-1.3-0.5-2c0-2.3,1.9-4.1,4.1-4.1c2.3,0,4.1,1.8,4.1,4.1
			c0,2.3-1.8,4.1-4.1,4.1l0,0L380.8,376.1z"/>
		<path class="st25" d="M436.1,351.5c0.7,0,1.3,0.6,1.3,1.3c0,0.7-0.6,1.3-1.3,1.3h-7.5c-0.7,0-1.3-0.6-1.3-1.3
			c0-0.7,0.6-1.3,1.3-1.3H436.1z M423.6,324.1c0.5-0.5,1.3-0.5,1.8,0c0.5,0.5,0.5,1.3,0,1.8l-2.6,2.7c-0.5,0.5-1.3,0.5-1.8,0
			c-0.5-0.5-0.5-1.3,0-1.8L423.6,324.1z M395.4,313.5c0-0.7,0.6-1.3,1.3-1.3c0.7,0,1.3,0.6,1.3,1.3v7.5c0,0.7-0.6,1.3-1.3,1.3
			c-0.7,0-1.3-0.6-1.3-1.3V313.5z M368,325.9c-0.5-0.5-0.5-1.3,0-1.8c0.5-0.5,1.3-0.5,1.8,0l2.6,2.6c0.5,0.5,0.5,1.3,0,1.8
			c-0.5,0.5-1.3,0.5-1.8,0L368,325.9z M357.4,354.1c-0.7,0-1.3-0.6-1.3-1.3c0-0.7,0.6-1.3,1.3-1.3h7.5c0.7,0,1.3,0.6,1.3,1.3
			c0,0.7-0.6,1.3-1.3,1.3H357.4z M369.8,381.6c-0.5,0.5-1.3,0.5-1.8,0c-0.5-0.5-0.5-1.3,0-1.8l2.6-2.6c0.5-0.5,1.3-0.5,1.8,0
			c0.5,0.5,0.5,1.3,0,1.8L369.8,381.6z M398,392.2c0,0.7-0.6,1.3-1.3,1.3c-0.7,0-1.3-0.6-1.3-1.3v-7.5c0-0.7,0.6-1.3,1.3-1.3
			c0.7,0,1.3,0.6,1.3,1.3V392.2z M425.5,379.7c0.5,0.5,0.5,1.3,0,1.8c-0.5,0.5-1.3,0.5-1.8,0l-2.6-2.6c-0.5-0.5-0.5-1.3,0-1.8
			c0.5-0.5,1.3-0.5,1.8,0L425.5,379.7z"/>
	</g>
	<g id="Loop">
		<path class="st26" d="M159.2,201.2c-13.2-22.8-5.3-51.9,17.4-65c20.5-11.8,46.2-6.7,60.7,11.1l52-30c3.6-2.1,8.3-0.8,10.4,2.8l0,0
			c2.1,3.6,0.8,8.3-2.8,10.3l-52,30.1c8.2,21.5-0.2,46.3-20.7,58.1C201.4,231.8,172.3,224,159.2,201.2L159.2,201.2z"/>
		<path class="st27" d="M159.2,201.2c-13.2-22.8-5.3-51.9,17.4-65c20.5-11.8,46.2-6.7,60.7,11.1l52-30c3.6-2.1,8.3-0.8,10.4,2.8
			L159.2,201.2z"/>
		<path class="st28" d="M165.4,197.6c-11-19.1-4.4-43.4,14.6-54.4c19.1-11,43.4-4.5,54.4,14.6c11,19.1,4.5,43.4-14.6,54.4
			C200.8,223.2,176.4,216.7,165.4,197.6L165.4,197.6z"/>
		<path class="st29" d="M175.8,175.9c0,2.3-1.9,4.2-4.2,4.2c-2.3,0-4.2-1.9-4.2-4.2c-0.1-8.4,2.3-14.7,6.4-19.7
			c3.9-4.8,9.3-8.2,15.4-10.8c2.1-0.9,4.6,0.1,5.5,2.2c0.9,2.1-0.1,4.6-2.2,5.6c-4.9,2.1-9.2,4.8-12.1,8.4
			C177.5,165.1,175.8,169.7,175.8,175.9L175.8,175.9z"/>
	</g>
</g>
</svg>
