<?xml version='1.0' encoding='utf-8'?>
<svg xmlns="http://www.w3.org/2000/svg" version="1.1" width="1080px" height="2132px" viewBox="0 0 1080 2132"> <g id="layer1"> <g style="fill:rgb(0,174,199); fill-opacity:1.0; stroke-linejoin: miter"> <path d="M-185.001,512.9096C-185.28995,512.9096,-185.56703,513.0244,-185.77135,513.2287C-185.97566,513.433,-186.09044,513.7101,-186.09044,513.999L-186.08943,1602.0C-186.08943,1602.6017,-185.60167,1603.0895,-185.0,1603.0895L1265.001,1603.0905C1265.2899,1603.0905,1265.567,1602.9757,1265.7714,1602.7714C1265.9757,1602.567,1266.0905,1602.2899,1266.0905,1602.001L1266.0895,514.0C1266.0895,513.3983,1265.6017,512.9106,1265.0,512.9106L-185.001,512.9096 Z"/> </g> <g style="fill:rgb(249,253,255); fill-opacity:0.19215687; stroke-linejoin: miter"> <path d="M565.71075,732.46155L511.1056,735.8398Q403.97174,746.54926,313.4557,788.8524Q268.19727,810.004,227.0933,839.05505Q203.47704,849.1119,114.06544,943.04504Q-51.469852,1153.1058,-17.3896,1407.3329L1148.6766,1407.3241Q1182.9506,1153.096,1017.35284,943.0399Q844.398,739.94995,565.71075,732.46155 Z"/> </g> <g style="fill:rgb(17,68,95); fill-opacity:0.99607843; stroke-linejoin: miter"> <path d="M290.52295,1351.5779L628.9338,1351.579L967.3448,1351.5795Q967.3448,1380.5894,967.3448,1409.5983Q628.9338,1409.5986,290.52295,1409.5989Q290.52295,1380.5887,290.52295,1351.5779"/> </g> <g style="fill:rgb(17,68,95); fill-opacity:0.99607843; stroke-linejoin: miter"> <path d="M715.9993,1111.2596L768.11786,1111.2605L820.2371,1111.2607Q820.2371,1249.2404,820.23737,1387.2195Q768.11835,1387.2195,715.9993,1387.2203Q715.9993,1249.2401,715.9993,1111.2596"/> </g> <g style="fill:rgb(17,68,95); fill-opacity:0.99607843; stroke-linejoin: miter"> <path d="M597.5518,1180.1681L701.78973,1180.1687L701.78973,1387.2192L597.5518,1387.22L597.5518,1180.1681"/> </g> <g style="fill:rgb(17,68,95); fill-opacity:0.99607843; stroke-linejoin: miter"> <path d="M479.10437,1235.5032L531.22345,1235.5037L583.34235,1235.5042Q583.34235,1311.362,583.34235,1387.2192Q531.22345,1387.2195,479.10455,1387.22Q479.10455,1311.362,479.10437,1235.5032"/> </g> <g style="fill:rgb(17,68,95); fill-opacity:0.99607843; stroke-linejoin: miter"> <path d="M834.44635,1030.3651L886.56537,1030.3654L938.68414,1030.3656Q938.68475,1208.7928,938.68475,1387.2195Q886.5655,1387.2195,834.44684,1387.2208Q834.44684,1208.7928,834.44635,1030.3651"/> </g> <g style="fill:rgb(17,68,95); fill-opacity:1.0; stroke-linejoin: miter"> <path d="M476.1891,1189.6038L476.1891,1189.6047L476.18903,1189.6045L466.7121,1183.6782L630.3947,1077.0284C631.643,1076.2155,633.14386,1075.8821,634.6191,1076.0898L634.6191,1076.0903L711.5444,1086.9431L707.0617,1088.0592L885.38324,958.48645C888.1357,956.4863,891.9891,957.0963,893.98895,959.849C895.9892,962.6018,895.37933,966.45483,892.6265,968.45496L892.6265,968.45593L714.30524,1098.0283C713.0124,1098.9675,711.4052,1099.3674,709.82306,1099.1447L709.82306,1099.1451L632.8975,1088.2913L637.12177,1087.3527L473.4389,1194.0021C471.42932,1195.3118,468.8426,1195.3356,466.80878,1194.0641C464.7752,1192.7924,463.66443,1190.4559,463.9619,1188.076L463.9619,1188.0765L463.96198,1188.0754C464.38416,1184.6989,467.46344,1182.3035,470.83984,1182.726C474.21637,1183.1482,476.61133,1186.2272,476.1891,1189.6038 Z"/> </g> <g style="fill:rgb(17,68,95); fill-opacity:0.99607843; stroke-linejoin: miter"> <path d="M869.59406,947.15894L869.59406,947.15906L897.36505,987.4512Q900.49554,970.4354,903.6257,953.4197L869.59406,947.15894"/> </g> <g style="fill:rgb(17,68,95); fill-opacity:0.99607843; stroke-linejoin: miter"> <path d="M360.65717,1280.9362L412.77597,1280.9362L464.89496,1280.937Q464.89502,1336.6504,464.89502,1392.362Q412.7761,1392.3625,360.65717,1392.3634Q360.65717,1336.6504,360.65717,1280.9362"/> </g> <g style="fill:rgb(15,59,82); fill-opacity:0.99607843; stroke-linejoin: miter"> <path d="M290.36133,1407.1569L628.9107,1407.1577L967.46,1407.158Q967.46,1409.4233,967.46,1411.6882Q628.9107,1411.6887,290.36133,1411.6891Q290.36133,1409.4231,290.36133,1407.1569"/> </g> <g style="fill:rgb(15,59,82); fill-opacity:0.99607843; stroke-linejoin: miter"> <path d="M290.4601,1351.8219L967.55914,1351.8226L967.55914,1356.3535L290.4601,1356.3538L290.4601,1351.8219"/> </g> <g style="fill:rgb(15,59,82); fill-opacity:0.99607843; stroke-linejoin: miter"> <path d="M834.3206,1030.3447L838.8156,1030.3451L843.3101,1030.3453Q843.3101,1191.8983,843.3101,1353.4512Q838.8156,1353.4514,834.321,1353.4521Q834.3206,1191.8983,834.3206,1030.3447"/> </g> <g style="fill:rgb(15,59,82); fill-opacity:0.99607843; stroke-linejoin: miter"> <path d="M714.90314,1111.277L719.39777,1111.277L723.89276,1111.2776Q723.89276,1232.8301,723.89276,1354.3827Q719.39813,1354.3827,714.9034,1354.3833Q714.9034,1232.8301,714.90314,1111.277"/> </g> <g style="fill:rgb(15,59,82); fill-opacity:0.99607843; stroke-linejoin: miter"> <path d="M597.18695,1180.0817L601.68146,1180.0823L606.1762,1180.0828Q606.1762,1266.9335,606.17645,1353.7842Q601.6817,1353.785,597.18695,1353.7853Q597.18695,1266.9335,597.18695,1180.0817"/> </g> <g style="fill:rgb(15,59,82); fill-opacity:0.99607843; stroke-linejoin: miter"> <path d="M476.8573,1235.3601L481.35217,1235.3604L485.84705,1235.3604Q485.84705,1294.0605,485.84705,1352.7607Q481.35223,1352.7614,476.85754,1352.7622Q476.8573,1294.0605,476.8573,1235.3601"/> </g> <g style="fill:rgb(15,59,82); fill-opacity:0.99607843; stroke-linejoin: miter"> <path d="M360.59015,1280.823L365.08508,1280.823L369.57986,1280.8239Q369.57986,1318.7167,369.57986,1356.6102Q365.08508,1356.6105,360.59015,1356.6105Q360.59015,1318.7167,360.59015,1280.823"/> </g> <g style="fill:rgb(34,43,50); fill-opacity:1.0; stroke-linejoin: miter"> <path d="M268.2531,1048.9995L276.29532,1048.9995L284.33734,1048.9999Q284.33734,1068.3381,284.33734,1087.677Q276.29532,1087.6776,268.2531,1087.6776Q268.2531,1068.3381,268.2531,1048.9995"/> </g> <g style="fill:rgb(34,43,50); fill-opacity:1.0; stroke-linejoin: miter"> <path d="M123.32264,1048.9995L115.28059,1049.0001L107.23858,1048.9995Q107.23856,1068.3381,107.23841,1087.6768Q115.28057,1087.677,123.322624,1087.677Q123.322624,1068.3385,123.32264,1048.9995"/> </g> <g style="fill:rgb(34,43,50); fill-opacity:1.0; stroke-linejoin: miter"> <path d="M230.16466,1368.7946L252.20454,1368.7914L274.24435,1368.7876Q274.24762,1387.2883,274.25064,1405.789Q252.21089,1405.7931,230.17097,1405.7971Q230.1678,1387.2961,230.16466,1368.7946"/> </g> <g style="fill:rgb(34,43,50); fill-opacity:1.0; stroke-linejoin: miter"> <path d="M184.19646,1032.1053L193.36763,1031.6815L202.53874,1031.2577Q204.08165,1064.6359,205.62462,1098.0139Q196.4533,1098.4384,187.28224,1098.8624Q185.7394,1065.4838,184.19646,1032.1053"/> </g> <g style="fill:rgb(212,239,240); fill-opacity:1.0; stroke-linejoin: miter"> <path d="M240.57414,1001.73413L239.8073,1008.0875Q235.63152,1027.1959,219.3814,1037.9797Q203.02306,1048.749,181.72777,1045.5198Q161.45149,1041.4706,149.92949,1026.0762Q146.23947,1021.10144,143.9755,1015.3379L142.12428,1009.4352Q140.65775,1003.36475,140.95644,996.85803Q142.46785,976.9193,157.17126,964.34985Q171.87471,951.78064,193.06483,952.31274Q214.20595,953.85254,227.6115,967.7977Q241.01707,981.74316,240.57414,1001.73413"/> </g> <g style="fill:rgb(34,43,50); fill-opacity:1.0; stroke-linejoin: miter"> <path d="M227.9598,1002.2666L227.69026,1005.46985Q225.52171,1015.1759,214.20793,1021.18835Q202.81468,1027.1976,187.20338,1026.4043Q172.29485,1025.1621,163.231,1017.9158Q160.32637,1015.573,158.42143,1012.7809L156.81003,1009.9037Q155.47069,1006.9276,155.39334,1003.6659Q155.58923,993.64746,165.69928,986.80286Q175.8091,979.9584,191.22224,979.4083Q206.64525,979.3635,217.01155,985.81384Q227.3777,992.2633,227.9598,1002.2666"/> </g> <g style="fill:rgb(0,188,233); fill-opacity:1.0; stroke-linejoin: miter"> <path d="M217.13771,998.2566L217.11464,999.121Q216.80797,1001.7444,214.8698,1003.3883Q212.91783,1005.0316,210.17485,1004.84717Q207.55174,1004.54065,205.90779,1002.6024Q204.26454,1000.65063,204.4488,997.9075Q204.75554,995.2843,206.69365,993.6405Q208.64561,991.9971,211.3885,992.1815Q214.01186,992.48816,215.65569,994.4264Q216.18266,995.05273,216.53777,995.80237L216.842,996.5758Q217.09938,997.37634,217.13771,998.2566"/> </g> <g style="fill:rgb(0,188,233); fill-opacity:1.0; stroke-linejoin: miter"> <path d="M181.76015,1001.39453L181.73708,1002.25977Q181.60088,1003.4254,181.14241,1004.3976Q180.49861,1005.5708,180.27328,1005.74744Q179.923,1006.16125,179.49248,1006.5265Q178.62491,1007.25696,177.6011,1007.6261Q176.28723,1008.00903,175.97762,1007.97705Q175.4071,1008.02637,174.79745,1007.9857Q174.47578,1008.0017,173.15741,1007.5995Q172.64702,1007.41077,172.18503,1007.14075Q171.26086,1006.60205,170.53046,1005.7406Q169.06973,1004.0055,169.05301,1001.6456Q169.06435,1000.4242,169.45724,999.4059Q169.64613,998.8956,169.91574,998.43335L170.20538,997.9835Q170.51529,997.5454,170.90565,997.156Q171.0681,996.9098,172.22267,996.1384Q172.69566,995.86365,173.20744,995.67896Q174.23137,995.3098,175.4113,995.30115Q176.63263,995.31274,177.65121,995.70544Q177.93642,995.74963,179.07346,996.454Q179.51126,996.76355,179.90083,997.15405Q180.69044,997.9446,181.16032,998.94116Q181.67601,999.98,181.76015,1001.39453"/> </g> <g style="fill:rgb(212,239,240); fill-opacity:1.0; stroke-linejoin: miter"> <path d="M249.98854,1052.9446L135.2346,1052.9446L135.23735,1151.4004Q140.81673,1159.6891,147.01125,1166.0734Q151.48566,1171.3971,163.45584,1179.0599L225.2817,1179.0542Q239.75194,1170.333,249.99232,1155.7164L249.98854,1052.9446 Z"/> </g> <g style="fill:rgb(212,239,240); fill-opacity:1.0; stroke-linejoin: miter"> <path d="M249.84392,1033.1986L261.7758,1033.199L273.70743,1033.1986Q273.70743,1095.345,273.70746,1157.4911Q261.77563,1157.4913,249.84395,1157.4917Q249.84392,1095.345,249.84392,1033.1986"/> </g> <g style="fill:rgb(34,43,50); fill-opacity:1.0; stroke-linejoin: miter"> <path d="M231.11812,1115.675L230.84865,1118.878Q230.36662,1121.0352,229.43333,1123.01Q229.24876,1124.1108,225.61656,1128.5227Q222.39467,1131.9244,217.36623,1134.5969Q214.83443,1135.932,212.09438,1136.9316Q205.06184,1139.1364,203.4052,1139.1743Q197.30003,1140.1653,190.36171,1139.8129Q183.73576,1139.2607,178.2643,1137.5226Q175.52844,1136.6536,173.08142,1135.4879Q167.21613,1132.3147,166.38934,1131.3243Q157.3835,1123.518,158.71765,1114.8873Q159.29427,1110.5916,161.82947,1106.9227Q163.09686,1105.088,164.85394,1103.4105Q165.45502,1102.4546,171.16962,1098.7682Q180.68004,1093.3055,194.38054,1092.8167Q197.80785,1092.8069,200.98558,1093.1176Q202.73045,1093.0726,209.95659,1094.7717Q215.56258,1096.3555,220.16997,1099.222Q222.47359,1100.6555,224.29393,1102.2639Q225.50609,1102.9589,228.66817,1107.4856Q230.85957,1111.2294,231.11812,1115.675"/> </g> <g style="fill:rgb(0,188,233); fill-opacity:1.0; stroke-linejoin: miter"> <path d="M182.06184,1113.7783L182.06184,1113.779L186.32253,1113.6917L186.39879,1117.4297L182.13805,1117.5164 Z M192.71336,1113.5614L192.71336,1113.5621L196.97408,1113.4747L197.05031,1117.2125L192.78963,1117.2994 Z M203.36507,1113.3445L203.36507,1113.3447L207.62578,1113.2578L207.70189,1116.9956L203.44124,1117.0823 Z M214.01677,1113.1276L214.01677,1113.128L218.27754,1113.0405L218.35356,1116.7787L214.09297,1116.8654 Z M171.41013,1113.9955L171.41013,1113.9957L175.67087,1113.9088L175.74707,1117.6466L171.48637,1117.7336 Z"/> </g> <g style="fill:rgb(212,239,240); fill-opacity:1.0; stroke-linejoin: miter"> <path d="M141.73209,1035.5664L129.8003,1035.5664L117.86851,1035.5667Q117.86851,1097.713,117.86857,1159.8597Q129.8003,1159.8594,141.73215,1159.86Q141.7321,1097.7134,141.73209,1035.5664"/> </g> <g style="fill:rgb(34,43,50); fill-opacity:1.0; stroke-linejoin: miter"> <path d="M153.27892,1168.0571L194.57686,1168.0571L235.87495,1168.0574Q235.87495,1175.4648,235.87495,1182.8722Q194.57686,1182.8726,153.27892,1182.8726Q153.27892,1175.4648,153.27892,1168.0571"/> </g> <g style="fill:rgb(212,239,240); fill-opacity:1.0; stroke-linejoin: miter"> <path d="M161.54921,1180.8741L194.20668,1180.8744L226.86378,1180.8744Q226.86378,1206.8578,226.86375,1232.8407Q194.2065,1232.8412,161.54924,1232.8418Q161.54927,1206.8578,161.54921,1180.8741"/> </g> <g style="fill:rgb(34,43,50); fill-opacity:1.0; stroke-linejoin: miter"> <path d="M223.3929,1200.395L238.1863,1200.3955L252.97942,1200.3959Q252.97939,1228.3898,252.97932,1256.3835Q238.18626,1256.3838,223.39287,1256.384Q223.39287,1228.3895,223.3929,1200.395"/> </g> <g style="fill:rgb(212,239,240); fill-opacity:1.0; stroke-linejoin: miter"> <path d="M233.27583,1198.9548L251.42216,1198.9553L269.56866,1198.9553Q269.56863,1287.528,269.56866,1376.1013Q251.4221,1376.1018,233.27571,1376.1018Q233.27568,1287.528,233.27583,1198.9548"/> </g> <g style="fill:rgb(34,43,50); fill-opacity:1.0; stroke-linejoin: miter"> <path d="M162.67886,1200.395L147.88562,1200.3955L133.09256,1200.3959Q133.09256,1228.3895,133.09248,1256.3835Q147.88565,1256.3835,162.67882,1256.384Q162.67882,1228.3895,162.67886,1200.395"/> </g> <g style="fill:rgb(212,239,240); fill-opacity:1.0; stroke-linejoin: miter"> <path d="M152.79614,1198.9548L134.6496,1198.9551L116.503105,1198.9553Q116.50317,1287.528,116.50317,1376.1013Q134.64964,1376.1018,152.79613,1376.1018Q152.79611,1287.528,152.79614,1198.9548"/> </g> <g style="fill:rgb(212,239,240); fill-opacity:1.0; stroke-linejoin: miter"> <path d="M243.33217,1354.2227L252.0562,1354.2235L260.78027,1354.2229Q260.78027,1376.65,260.78027,1399.0773Q252.05644,1399.0773,243.33217,1399.0773Q243.33217,1376.65,243.33217,1354.2227"/> </g> <g style="fill:rgb(34,43,50); fill-opacity:1.0; stroke-linejoin: miter"> <path d="M114.63886,1370.3202L136.67874,1370.3163L158.71867,1370.3125Q158.72192,1388.8132,158.72504,1407.314Q136.68521,1407.3186,114.6453,1407.322Q114.6421,1388.8214,114.63886,1370.3202"/> </g> <g style="fill:rgb(212,239,240); fill-opacity:1.0; stroke-linejoin: miter"> <path d="M127.806404,1355.7479L136.53052,1355.7484L145.25453,1355.7479Q145.2547,1378.1752,145.2547,1400.6023Q136.5305,1400.6025,127.80648,1400.6025Q127.80648,1378.1752,127.806404,1355.7479"/> </g> <g style="fill:rgb(34,43,50); fill-opacity:1.0; stroke-linejoin: miter"> <path d="M229.17128,1291.5338L252.06474,1291.5347L274.95807,1291.5349Q274.95807,1301.4106,274.95807,1311.2869Q252.06474,1311.2871,229.17122,1311.2874Q229.17128,1301.4106,229.17128,1291.5338"/> </g> <g style="fill:rgb(34,43,50); fill-opacity:1.0; stroke-linejoin: miter"> <path d="M112.2219,1294.6442L158.00871,1294.6445L158.00871,1314.3969L112.2219,1314.3975L112.2219,1294.6442"/> </g> <g style="fill:rgb(209,238,239); fill-opacity:1.0; stroke-linejoin: miter"> <path d="M280.49045,1058.6564L292.41702,1059.835L304.3434,1061.0139Q301.3287,1091.5289,298.3139,1122.044Q286.38718,1120.8661,274.46054,1119.6884Q277.47552,1089.1722,280.49045,1058.6564"/> </g> <g style="fill:rgb(209,238,239); fill-opacity:1.0; stroke-linejoin: miter"> <path d="M258.61438,1152.5325L253.91768,1141.5084L249.2212,1130.4845Q267.01495,1122.9027,284.8088,1115.3209Q289.5064,1126.3442,294.20407,1137.3679Q276.40912,1144.9501,258.61438,1152.5325"/> </g> <g style="fill:rgb(34,43,50); fill-opacity:1.0; stroke-linejoin: miter"> <path d="M297.41376,1120.5203L298.20258,1121.5228Q300.32663,1124.7885,299.6767,1128.4805Q299.01025,1132.1842,295.72424,1134.5603Q292.4587,1136.6841,288.76694,1136.0344Q287.57843,1135.82,286.46896,1135.3041L285.3948,1134.7134Q284.3485,1134.0477,283.47598,1133.0854Q280.8807,1130.0566,281.07452,1126.3175Q281.26822,1122.5782,284.16217,1119.8341Q287.19098,1117.2388,290.92996,1117.4327Q294.66907,1117.6261,297.41376,1120.5203"/> </g> <g style="fill:rgb(34,43,50); fill-opacity:1.0; stroke-linejoin: miter"> <path d="M301.12042,1062.5037L301.03015,1063.8436Q300.3894,1067.893,297.27988,1070.3206Q294.14905,1072.7463,289.906,1072.2878Q285.85687,1071.6471,283.42908,1068.5375Q282.6512,1067.5327,282.1477,1066.3474L281.7245,1065.1287Q281.37567,1063.871,281.37164,1062.5037Q281.47757,1058.3079,284.26382,1055.5217Q287.05008,1052.7355,291.24597,1052.6294Q295.44208,1052.7355,298.22824,1055.5217Q301.01437,1058.3079,301.12042,1062.5037"/> </g> <g style="fill:rgb(255,255,255); fill-opacity:1.0; stroke-linejoin: miter"> <path d="M213.7495,1132.1368L213.7495,1132.1371L213.7495,1132.1371Q206.45976,1132.1371,199.17009,1132.1371L213.7495,1132.1368"/> </g> <g style="fill:rgb(34,43,50); fill-opacity:1.0; stroke-linejoin: miter"> <path d="M250.59938,1124.971L254.0349,1124.7391L257.47015,1124.5076Q258.52457,1140.1273,259.5785,1155.7465Q256.14307,1155.9789,252.70805,1156.2107Q251.65361,1140.591,250.59938,1124.971"/> </g> <g style="fill:rgb(209,238,239); fill-opacity:1.0; stroke-linejoin: miter"> <path d="M155.32776,1153.1277L145.39595,1152.0967L135.46378,1151.0662Q135.17877,1153.8137,134.89348,1156.5608Q144.82512,1157.5924,154.75761,1158.6226Q155.04253,1155.8749,155.32776,1153.1277"/> </g> <g style="fill:rgb(209,238,239); fill-opacity:1.0; stroke-linejoin: miter"> <path d="M155.89377,1142.4254L136.02972,1140.3638L135.45935,1145.8584L155.32333,1147.9204L155.89377,1142.4254"/> </g> <g style="fill:rgb(209,238,239); fill-opacity:1.0; stroke-linejoin: miter"> <path d="M156.84108,1130.7063L146.90921,1129.6757L136.97702,1128.6447Q136.6919,1131.3917,136.4066,1134.1398Q146.33847,1135.1705,156.27078,1136.2013Q156.55579,1133.4535,156.84108,1130.7063"/> </g> <g style="fill:rgb(209,238,239); fill-opacity:1.0; stroke-linejoin: miter"> <path d="M132.61057,1153.5461L137.30696,1142.5225L142.00375,1131.4985Q124.21,1123.9166,106.41622,1116.3348Q101.71844,1127.3582,97.020836,1138.3818Q114.81568,1145.9637,132.61057,1153.5461"/> </g> <g style="fill:rgb(34,43,50); fill-opacity:1.0; stroke-linejoin: miter"> <path d="M140.62555,1125.9846L137.19005,1125.753L133.75467,1125.5212Q132.7003,1141.141,131.64629,1156.7605Q135.08188,1156.9926,138.51689,1157.2246Q139.57118,1141.6046,140.62555,1125.9846"/> </g> <g style="fill:rgb(34,43,50); fill-opacity:1.0; stroke-linejoin: miter"> <path d="M93.81129,1121.5343L93.02242,1122.5369Q90.89826,1125.8024,91.548256,1129.4939Q92.21455,1133.1981,95.50054,1135.5741Q98.766136,1137.6984,102.458015,1137.0483Q103.64645,1136.8339,104.75608,1136.318L105.82995,1135.7273Q106.87635,1135.0614,107.749,1134.0995Q110.34423,1131.0703,110.150475,1127.3314Q109.95661,1123.5922,107.06281,1120.848Q104.034035,1118.253,100.295006,1118.4464Q96.55572,1118.64,93.81129,1121.5343"/> </g> <g style="fill:rgb(209,238,239); fill-opacity:1.0; stroke-linejoin: miter"> <path d="M110.73446,1059.6704L98.80781,1060.849L86.881386,1062.0276Q89.89623,1092.5428,92.91111,1123.0579Q104.83776,1121.8801,116.764336,1120.7023Q113.74926,1090.1865,110.73446,1059.6704"/> </g> <g style="fill:rgb(34,43,50); fill-opacity:1.0; stroke-linejoin: miter"> <path d="M90.10441,1063.5178L90.19456,1064.8573Q90.83547,1068.9069,93.94485,1071.3345Q97.07583,1073.7603,101.3187,1073.3018Q105.36788,1072.6608,107.79571,1069.5518Q108.573616,1068.5464,109.077156,1067.3613L109.500374,1066.1427Q109.84922,1064.885,109.85317,1063.5178Q109.747246,1059.3218,106.96105,1056.5356Q104.17478,1053.7491,99.9788,1053.6433Q95.7828,1053.7494,92.99659,1056.5356Q90.210396,1059.3218,90.10441,1063.5178"/> </g> <g style="fill:rgb(236,154,94); fill-opacity:1.0; stroke-linejoin: miter"> <path d="M250.33089,1145.5951L229.46333,1149.892L226.91997,1154.0458Q218.12102,1168.5441,215.64357,1174.2863Q213.82054,1178.1768,212.57362,1181.8578L211.51192,1185.4707Q210.61485,1189.0244,210.54094,1192.2775L210.71388,1195.4409L211.30293,1198.2114Q212.10408,1200.9053,213.61668,1203.2522Q215.12941,1205.5994,217.21736,1207.563L219.41527,1209.4209Q221.73985,1211.178,224.4356,1212.4952Q227.13142,1213.8125,230.06187,1214.6517Q231.33797,1215.2462,235.97902,1215.7401Q237.20168,1215.8704,238.65785,1215.9933Q242.28514,1216.0675,245.3221,1215.5023Q248.47874,1214.9393,251.3821,1213.7788L254.18663,1212.4757Q259.7044,1209.5634,263.07132,1204.4949Q264.71918,1201.9685,265.61615,1198.9473L266.28983,1195.8098L266.5291,1192.4419Q266.54504,1188.958,265.81668,1185.0864Q264.28568,1177.3047,260.67075,1168.4381Q258.16428,1161.8951,250.33089,1145.5951 Z"/> </g> <g style="fill:rgb(0,0,0); fill-opacity:0.105882354; stroke-linejoin: miter"> <path d="M238.9247,1147.9442L229.46333,1149.892L226.91997,1154.0458Q218.12102,1168.5441,215.64357,1174.2863Q213.82054,1178.1768,212.57362,1181.8578L211.51192,1185.4707Q210.61485,1189.0244,210.54094,1192.2775L210.71388,1195.4409L211.30293,1198.2114Q212.10408,1200.9053,213.61668,1203.2522Q215.12941,1205.5994,217.21736,1207.563L219.41527,1209.4209Q221.73985,1211.178,224.4356,1212.4952Q227.13142,1213.8125,230.06187,1214.6517Q231.33806,1215.2462,235.97939,1215.7404Q236.36247,1215.781,236.76842,1215.821Q235.54878,1215.4363,234.43336,1215.0269Q225.32253,1211.9034,222.55696,1203.8975Q221.72285,1200.9602,221.79036,1197.5138Q221.42152,1195.959,223.48555,1186.5308Q223.7928,1184.5941,227.30913,1175.058L238.85945,1148.1256Q238.89308,1148.0349,238.92622,1147.9442 Z"/> </g> <g style="fill:rgb(255,255,255); fill-opacity:1.0; stroke-linejoin: miter"> <path d="M246.1772,1174.0062L246.17723,1174.0065L246.17726,1174.0062L246.17723,1174.0065L246.17699,1174.0065L246.17674,1174.0065L246.17699,1174.0065L246.1772,1174.0062 Z"/> </g> <g style="fill:rgb(255,255,255); fill-opacity:1.0; stroke-linejoin: miter"> <path d="M245.8572,1185.6298L245.85716,1185.6302L245.8572,1185.6298L245.85716,1185.6302L245.8572,1185.6298L245.85716,1185.6302L245.8572,1185.6298L245.85716,1185.6302L245.85698,1185.6298L245.85664,1185.6302L245.85698,1185.6298L245.8571,1185.6302 Z"/> </g> <g style="fill:rgb(255,255,255); fill-opacity:1.0; stroke-linejoin: miter"> <path d="M246.34761,1167.8044L244.98238,1167.7671L244.92015,1170.0289Q242.48958,1170.4114,240.95848,1172.1451Q239.42696,1173.8987,239.27373,1176.6266Q239.15715,1179.7998,240.33257,1181.382Q241.16243,1182.8243,244.51515,1184.7333L244.31541,1191.9885Q243.59041,1191.8623,242.84459,1190.8037Q242.3637,1189.7894,242.54744,1188.1537L238.98268,1187.1967L238.92854,1189.3538Q238.9955,1191.6838,240.25035,1193.4304Q241.93398,1195.6349,244.20589,1195.9668L244.14153,1198.3073L245.50655,1198.3446L245.57005,1196.0438Q247.4976,1195.9912,249.6097,1193.93Q251.20354,1192.0416,251.33446,1189.4106Q251.4416,1186.233,250.44054,1185.0142Q249.87431,1183.783,245.97487,1181.3386L246.17674,1174.0065Q246.94896,1174.1327,247.74147,1175.2062Q248.25322,1176.245,248.06062,1177.8832L251.62538,1178.8403L251.65129,1177.904Q251.8955,1175.3951,250.89317,1173.4615Q249.16783,1170.5625,246.28627,1170.0276L246.34761,1167.8044 Z M244.81056,1174.0076L244.63441,1180.4043Q244.22694,1180.0807,243.91298,1179.7194L243.62248,1179.3484L243.37886,1178.9584L243.1819,1178.5497L243.0317,1178.1221L242.92833,1177.6752L242.8719,1177.21L242.8621,1176.7252L242.89806,1176.2599L242.97914,1175.8358L243.10533,1175.4524L243.27669,1175.1097L243.49315,1174.8077Q243.9713,1174.2448,244.81056,1174.0076 M245.85799,1185.6302L246.26707,1185.9409Q247.03517,1186.5862,247.40486,1187.4291L247.5649,1187.8625L247.67503,1188.321L247.73543,1188.804L247.7459,1189.3115L247.70796,1189.7996L247.62212,1190.241L247.48833,1190.6361L247.30678,1190.9844L247.0772,1191.2858Q246.57042,1191.8425,245.68053,1192.0261L245.85799,1185.6302 Z"/> </g> <g style="fill:rgb(236,154,94); fill-opacity:1.0; stroke-linejoin: miter"> <path d="M251.61864,1104.3446Q249.7476,1104.1453,243.21742,1106.4188Q236.94298,1104.2595,234.57927,1104.0079Q234.38857,1103.9877,234.22322,1103.9795Q230.85915,1103.6732,229.71791,1105.137Q228.9276,1105.9064,228.7538,1108.0217L228.77135,1109.6044Q228.89122,1111.3192,229.34624,1113.4668Q230.34908,1118.6611,235.07344,1131.782L236.1151,1134.6871L248.7321,1138.8198Q254.65755,1119.6174,255.17088,1115.4387Q255.62144,1113.0544,255.76842,1111.1318L255.82259,1109.3503Q255.79189,1107.7068,255.35832,1106.6387Q254.74477,1104.6796,251.98985,1104.3864Q251.8806,1104.3746,251.7678,1104.3655Q251.69743,1104.353,251.61864,1104.3446 Z"/> </g> <g style="fill:rgb(0,0,0); fill-opacity:0.105882354; stroke-linejoin: miter"> <path d="M234.57927,1104.0079Q234.38857,1103.9877,234.22322,1103.9795Q230.85915,1103.6732,229.71791,1105.137Q228.9276,1105.9064,228.7538,1108.0217L228.77135,1109.6044Q228.89122,1111.3192,229.34624,1113.4668Q230.34908,1118.6611,235.07344,1131.782L236.1151,1134.6871L241.62184,1136.4907Q242.73167,1125.3333,239.49168,1105.1985Q236.16087,1104.1764,234.57927,1104.0079 Z"/> </g> <g style="fill:rgb(34,43,50); fill-opacity:1.0; stroke-linejoin: miter"> <path d="M225.99876,1124.1506L240.34123,1124.1509L254.68376,1124.1511Q254.68376,1140.9141,254.68376,1157.6766Q240.34123,1157.6769,225.99876,1157.6775Q225.99876,1140.9141,225.99876,1124.1506"/> </g> <g style="fill:rgb(236,154,94); fill-opacity:1.0; stroke-linejoin: miter"> <path d="M140.14627,1145.2823L161.0138,1149.5791L163.55716,1153.7329Q172.35611,1168.2312,174.83356,1173.9731Q176.65657,1177.864,177.90349,1181.5449L178.96521,1185.158Q179.86226,1188.7113,179.93616,1191.9647L179.76324,1195.1282L179.17418,1197.8986Q178.37303,1200.5924,176.86043,1202.9393Q175.3477,1205.2865,173.25972,1207.25L171.0618,1209.1078Q168.73718,1210.8651,166.04144,1212.1824Q163.34561,1213.4996,160.41518,1214.3389Q159.13905,1214.9333,154.49805,1215.4274Q153.27539,1215.5576,151.8192,1215.6805Q148.19191,1215.7545,145.15495,1215.1896Q141.99832,1214.6265,139.09497,1213.4661L136.29045,1212.1628Q130.77264,1209.2505,127.405815,1204.1821Q125.75793,1201.6554,124.86094,1198.6344L124.18728,1195.497L123.94796,1192.129Q123.932045,1188.645,124.66042,1184.7734Q126.191444,1176.9917,129.80637,1168.1254Q132.31282,1161.5822,140.14627,1145.2823 Z"/> </g> <g style="fill:rgb(0,0,0); fill-opacity:0.105882354; stroke-linejoin: miter"> <path d="M151.55241,1147.6311L161.0138,1149.5791L163.55716,1153.7329Q172.35611,1168.2312,174.83356,1173.9731Q176.65657,1177.864,177.90349,1181.5449L178.96521,1185.158Q179.86226,1188.7113,179.93616,1191.9647L179.76324,1195.1282L179.17418,1197.8986Q178.37303,1200.5924,176.86043,1202.9393Q175.3477,1205.2865,173.25972,1207.25L171.0618,1209.1078Q168.73718,1210.8651,166.04144,1212.1824Q163.34561,1213.4996,160.41518,1214.3389Q159.13898,1214.9333,154.49767,1215.4274Q154.1146,1215.4683,153.70863,1215.5083Q154.92827,1215.1235,156.0437,1214.714Q165.15451,1211.5903,167.92015,1203.5847Q168.75421,1200.6471,168.68674,1197.2009Q169.05556,1195.6462,166.99155,1186.2179Q166.68431,1184.2812,163.16798,1174.7452L151.61768,1147.8129Q151.58406,1147.7222,151.55092,1147.6315 Z"/> </g> <g style="fill:rgb(255,255,255); fill-opacity:1.0; stroke-linejoin: miter"> <path d="M145.98311,1173.6934L145.98315,1173.6936L145.98322,1173.6934L145.98315,1173.6936L145.98294,1173.6936L145.98268,1173.6936L145.98294,1173.6936L145.98311,1173.6934 Z"/> </g> <g style="fill:rgb(255,255,255); fill-opacity:1.0; stroke-linejoin: miter"> <path d="M145.66315,1185.3169L145.6631,1185.3171L145.66315,1185.3169L145.6631,1185.3171L145.66315,1185.3169L145.6631,1185.3171L145.66315,1185.3169L145.6631,1185.3171L145.6629,1185.3169L145.66257,1185.3171L145.6629,1185.3169L145.66307,1185.3175 Z"/> </g> <g style="fill:rgb(255,255,255); fill-opacity:1.0; stroke-linejoin: miter"> <path d="M146.15356,1167.4916L144.78833,1167.4542L144.7261,1169.7162Q142.29549,1170.0983,140.76442,1171.8323Q139.23288,1173.5858,139.07967,1176.3136Q138.96309,1179.487,140.13849,1181.0691Q140.96835,1182.5115,144.32106,1184.4205L144.12134,1191.6758Q143.3963,1191.5496,142.65051,1190.4908Q142.16959,1189.4764,142.35336,1187.841L138.78862,1186.8835L138.73445,1189.0406Q138.80142,1191.3711,140.05624,1193.1173Q141.73988,1195.322,144.01183,1195.654L143.94746,1197.9941L145.31247,1198.0319L145.37598,1195.731Q147.30353,1195.6781,149.41562,1193.6172Q151.00948,1191.7288,151.1404,1189.0978Q151.24753,1185.92,150.24649,1184.701Q149.68024,1183.4702,145.7808,1181.0258L145.98268,1173.6936Q146.75488,1173.8196,147.5474,1174.8934Q148.05914,1175.9323,147.8666,1177.5704L151.43135,1178.5275L151.45724,1177.5913Q151.70146,1175.0824,150.6991,1173.1484Q148.9738,1170.2496,146.09222,1169.7147L146.15356,1167.4916 Z M144.61653,1173.6947L144.44035,1180.0914Q144.03291,1179.7678,143.7189,1179.4066L143.4284,1179.0355L143.1848,1178.6455L142.98784,1178.2369L142.83763,1177.8093L142.73427,1177.3624L142.67783,1176.8972L142.66803,1176.4121L142.70398,1175.9471L142.78506,1175.5231L142.91125,1175.1395L143.08263,1174.797L143.29906,1174.495Q143.77722,1173.932,144.61653,1173.6947 M145.66396,1185.3175L146.07303,1185.6278Q146.84114,1186.2734,147.2108,1187.1162L147.37082,1187.5498L147.48099,1188.0083L147.54134,1188.4912L147.55183,1188.9987L147.51389,1189.4865L147.42804,1189.9281L147.29425,1190.3232L147.1127,1190.6713L146.88312,1190.9729Q146.37634,1191.5295,145.48647,1191.7131L145.66396,1185.3175 Z"/> </g> <g style="fill:rgb(236,154,94); fill-opacity:1.0; stroke-linejoin: miter"> <path d="M138.85847,1104.0317Q140.72948,1103.8325,147.25966,1106.106Q153.53409,1103.9468,155.89784,1103.6952Q156.08849,1103.6748,156.25386,1103.6667Q159.61792,1103.3605,160.75916,1104.824Q161.54944,1105.5936,161.72327,1107.709L161.70573,1109.2916Q161.58586,1111.0065,161.13083,1113.154Q160.128,1118.3484,155.40366,1131.4692L154.36198,1134.3743L141.74503,1138.507Q135.81955,1119.3046,135.30621,1115.1259Q134.85565,1112.7416,134.70866,1110.8191L134.6545,1109.0374Q134.68523,1107.394,135.11877,1106.3259Q135.73235,1104.3668,138.48723,1104.0735Q138.5965,1104.0619,138.70927,1104.0526Q138.77966,1104.0402,138.85847,1104.0317 Z"/> </g> <g style="fill:rgb(0,0,0); fill-opacity:0.105882354; stroke-linejoin: miter"> <path d="M155.89784,1103.6952Q156.08849,1103.6748,156.25386,1103.6667Q159.61792,1103.3605,160.75916,1104.824Q161.54944,1105.5936,161.72327,1107.709L161.70573,1109.2916Q161.58586,1111.0065,161.13083,1113.154Q160.128,1118.3484,155.40366,1131.4692L154.36198,1134.3743L148.85529,1136.178Q147.74544,1125.0203,150.98541,1104.8857Q154.31622,1103.8636,155.89784,1103.6952 Z"/> </g> <g style="fill:rgb(34,43,50); fill-opacity:1.0; stroke-linejoin: miter"> <path d="M164.47832,1123.8379L150.13582,1123.8381L135.79335,1123.8384Q135.79338,1140.601,135.79338,1157.3638Q150.13585,1157.3641,164.47835,1157.3644Q164.47835,1140.601,164.47832,1123.8379"/> </g> </g> </svg>