<?xml version='1.0' encoding='utf-8'?>
<svg xmlns="http://www.w3.org/2000/svg" version="1.1" id="Layer_1" x="0px" y="0px" viewBox="0 0 500 500" style="enable-background:new 0 0 500 500;"> <style type="text/css"> .st0{fill:#5D1AC6;} .st1{opacity:0.6;} .st2{fill:#FFFFFF;} .st3{fill:url(#SVGID_1_);} .st4{fill:#FF931E;} .st5{fill:#FFB31E;} .st6{fill:#FFA31E;} .st7{fill:#F8F0E5;} .st8{opacity:0.8;} .st9{fill:#E5432A;} .st10{fill:#4D5357;} .st11{fill:#E8D4B0;} .st12{fill:#E1C798;} .st13{fill:#D8B77A;} .st14{fill:#4C4A59;} .st15{opacity:0.5;fill:#FFFFFF;} .st16{opacity:0.4;} .st17{opacity:0.8;fill:#474748;} .st18{fill:#474748;} </style> <rect class="st0" width="500" height="500"/> <g> <g class="st1"> <path class="st2" d="M345.3,124.5l-1.6-2.1c1-0.8,2.1-1.6,3.2-2.4l1.5,2.1C347.4,122.9,346.3,123.7,345.3,124.5z"/> <path class="st2" d="M375.1,289.5c-2.7-0.1-5.5-0.4-8.2-0.9l0.5-2.6c2.6,0.5,5.2,0.8,7.7,0.9L375.1,289.5z M383.3,289l-0.4-2.6 c2.6-0.4,5.1-1,7.5-1.8l0.8,2.5C388.7,287.9,386,288.6,383.3,289z M359.1,286.3c-1.9-0.7-3.9-1.5-5.7-2.4 c-0.6-0.3-1.2-0.6-1.8-0.9l1.2-2.3c0.6,0.3,1.1,0.6,1.7,0.8c1.8,0.9,3.6,1.7,5.5,2.3L359.1,286.3z M398.9,283.8l-1.3-2.3 c2.3-1.2,4.4-2.7,6.5-4.3l1.6,2.1C403.6,281,401.3,282.5,398.9,283.8z M344.6,278.7c-2.2-1.5-4.3-3.3-6.4-5.1l1.8-2 c2,1.8,4,3.4,6.1,4.9L344.6,278.7z M411.8,273.7l-1.9-1.8c1.8-1.9,3.4-3.9,4.9-6.1l2.2,1.5C415.4,269.6,413.6,271.8,411.8,273.7z M332.5,267.8c-1.8-2-3.5-4.1-5.1-6.3l2.1-1.6c1.6,2.1,3.2,4.2,4.9,6.1L332.5,267.8z M421.1,260.3l-2.4-1.2c1.2-2.3,2.2-4.8,3-7.2 l2.5,0.8C423.3,255.3,422.3,257.9,421.1,260.3z M309.8,255.3l-2-1.8c1.9-2.1,3.4-4.1,4.7-6.2l2.2,1.4 C313.3,250.9,311.7,253.1,309.8,255.3z M322.9,254.8c-1.4-2.3-2.7-4.7-3.9-7.1l2.4-1.2c1.2,2.4,2.4,4.7,3.8,6.9L322.9,254.8z M426.3,244.8l-2.6-0.5c0.5-2.6,0.8-5.2,0.9-7.8l2.6,0.1C427.1,239.4,426.8,242.2,426.3,244.8z M318.5,241.4l-2.5-1 c0.1-0.1,0.1-0.3,0.2-0.4l-0.5,0.2c-1-2.5-1.9-5.1-2.7-7.6l2.5-0.8c0.5,1.7,1.1,3.4,1.8,5.1c0.4-1.3,0.8-2.7,1.1-3.9l2.6,0.7 C320.3,236.1,319.6,238.7,318.5,241.4z M424.4,228.8c-0.2-2.6-0.6-5.2-1.2-7.7l2.6-0.6c0.6,2.7,1,5.4,1.3,8.1L424.4,228.8z M322.9,225.9l-2.5-0.7c0.8-2.8,1.7-5.3,2.7-7.7l2.4,1C324.5,220.9,323.7,223.2,322.9,225.9z M310.8,224.8c-0.6-2.6-1.2-5.3-1.6-8 l2.6-0.4c0.4,2.6,0.9,5.2,1.5,7.8L310.8,224.8z M420.9,213.5c-0.9-2.5-2-4.9-3.2-7.1l2.3-1.3c1.3,2.3,2.4,4.9,3.4,7.5L420.9,213.5 z M328.9,211.5l-2.3-1.3c1.3-2.2,2.8-4.5,4.4-6.8l2.1,1.5C331.6,207.2,330.2,209.4,328.9,211.5z M308.3,208.8 c-0.2-2.7-0.4-5.4-0.4-8.1l2.6,0c0,2.6,0.2,5.3,0.4,7.9L308.3,208.8z M413.5,199.9c-1.6-2.1-3.3-4-5.2-5.8l1.8-1.9 c2,1.9,3.8,3.9,5.5,6.1L413.5,199.9z M338.2,198.9l-1.9-1.8c1.9-2,3.9-3.9,6-5.5l1.7,2.1C342,195.2,340,197,338.2,198.9z M310.6,192.7l-2.6-0.2c0.2-2.7,0.4-5.4,0.8-8.1l2.6,0.3C311,187.5,310.8,190.1,310.6,192.7z M402.2,189.3 c-2.2-1.4-4.5-2.7-6.8-3.7l1-2.4c2.5,1.1,5,2.4,7.2,3.9L402.2,189.3z M350.4,189.2l-1.3-2.3c2.4-1.4,4.8-2.6,7.3-3.6l1,2.4 C355,186.7,352.6,187.9,350.4,189.2z M364.8,183.3l-0.6-2.6c2.7-0.6,5.4-1.1,8.1-1.3l0.2,2.6C369.9,182.3,367.3,182.7,364.8,183.3 z M388,183.1c-2.5-0.6-5.1-1-7.7-1.2l0.2-2.6c2.7,0.2,5.5,0.6,8.1,1.2L388,183.1z M312.8,177.1l-2.6-0.6c0.6-2.6,1.2-5.3,2-7.9 l2.5,0.8C314,171.9,313.3,174.5,312.8,177.1z M317.3,162l-2.5-1c1-2.5,2.1-5,3.3-7.4l2.4,1.2C319.4,157.1,318.3,159.5,317.3,162z M324.4,147.9l-2.2-1.4c1.4-2.3,3-4.6,4.6-6.7l2.1,1.6C327.2,143.5,325.7,145.7,324.4,147.9z M333.8,135.3l-2-1.8 c1.8-2,3.7-4,5.7-5.8l1.8,1.9C337.4,131.4,335.5,133.3,333.8,135.3z"/> <path class="st2" d="M300.7,263.9l-1.7-2c1-0.9,2-1.7,2.9-2.6l1.8,2C302.8,262.2,301.8,263,300.7,263.9z"/> </g> <g> <radialGradient id="SVGID_1_" cx="1140.1414" cy="-2102.3088" r="20.4867" gradientTransform="matrix(-0.2468 -0.5972 1.0043 -0.4151 2789.1113 -90.7608)" gradientUnits="userSpaceOnUse"> <stop offset="0" style="stop-color:#F96E1A"/> <stop offset="1" style="stop-color:#EF610E"/> </radialGradient> <polygon class="st3" points="375.6,101.9 381.3,106.4 380.8,114.6 383.7,118 424.1,101.5 415.7,81.2 375.3,97.7 "/> <g> <polygon class="st4" points="383.6,118 383.7,118 424.1,101.5 422.4,97.6 380.8,114.6 "/> <polygon class="st5" points="380.8,114.6 422.4,97.6 419.9,91.4 382.1,106.8 "/> <polygon class="st6" points="382.1,106.8 419.9,91.4 417.3,85.1 375.6,102.1 "/> <polygon class="st4" points="417.3,85.1 415.7,81.2 375.3,97.7 375.2,97.8 375.6,102.1 "/> </g> <polygon class="st7" points="360.3,111.9 363,118.4 384,117.9 381.1,114.7 381.8,106.5 375.9,102 375.6,98.2 "/> <polygon points="354.2,118 363,118.4 360.3,111.9 "/> </g> <g class="st8"> <g> <path class="st2" d="M395.1,223.6c0.4-0.2,0.7-0.6,0.5-1.1c-0.2-0.4-0.6-0.7-1.1-0.5l-6.4,2.2c-0.4,0.2-0.7,0.6-0.5,1.1 c0.1,0.3,0.4,0.5,0.7,0.6c0.1,0,0.3,0,0.4,0L395.1,223.6z"/> <path class="st2" d="M396.4,230.1l-6.6-1.5c-0.4-0.1-0.9,0.2-1,0.6c-0.1,0.5,0.2,0.9,0.6,1l6.6,1.5c0,0,0,0,0.1,0 c0.4,0.1,0.8-0.2,0.9-0.6C397.2,230.6,396.9,230.2,396.4,230.1z"/> <path class="st2" d="M391.7,215.3c-0.4-0.3-0.9-0.2-1.2,0.1l-4.3,5.2c-0.3,0.4-0.2,0.9,0.1,1.2c0.1,0.1,0.3,0.2,0.4,0.2 c0.3,0,0.6-0.1,0.8-0.3l4.3-5.2C392.1,216.1,392,215.6,391.7,215.3z"/> </g> <path class="st2" d="M376.6,214.2l4.5,13.4l4.2,12.6l-1.1,0.4l-0.3-0.8l-0.4-1.3l-1.3,0.1l-7.9,0.4l-1.8,0.1l0.1,1.8 c0,0.9-0.1,3.8-2.7,4.7l-4.9,1.7c-0.2,0.1-0.4,0.1-0.6,0.1c-0.1,0-0.2,0-0.3,0c-0.2,0-0.4-0.1-0.5-0.2c-0.4-0.2-0.8-0.6-0.9-1 l-1.8-5.2l-0.4-1.3l-1.3,0.1l-2.4,0.1l-0.5-1.4l-1.9,1.3l-1.4,1l-0.9-2.7l-1.1-3.3l1.7-0.1l2.4-0.1l-0.6-1.8l20.8-14.5l1.1-0.8 l-0.4-1.3l-0.5-1.4L376.6,214.2L376.6,214.2z M377.7,211.9l-4.6,1.5l1.1,3.1l-21.9,15.3l0.3,0.8l-4.1,0.2l1.9,5.6l1.7,4.9l3.4-2.3 l0.2,0.4l3.7-0.2l1.8,5.2c0.3,0.9,1,1.6,1.8,2.1c0.3,0.2,0.7,0.3,1.1,0.3c0.2,0,0.4,0,0.5,0c0.4,0,0.8-0.1,1.2-0.2l4.9-1.7 c2.8-0.9,4-3.7,3.9-6.4l7.9-0.4l0.9,2.5l4.5-1.5l-4.8-14.3L377.7,211.9L377.7,211.9z"/> <path class="st2" d="M372.8,240.7c0.1,2.1-0.8,4.2-2.8,4.8l-4.9,1.7c-0.2,0.1-0.4,0.1-0.6,0.1c-0.1,0-0.2,0-0.3,0 c-0.2,0-0.4-0.1-0.6-0.2c-0.5-0.2-0.8-0.6-1-1.1l-1.6-4.7L372.8,240.7L372.8,240.7z M374.5,238.9l-1.8,0.1l-11.8,0.5l-2.4,0.1 l0.8,2.2l1.6,4.7c0.3,1,1,1.7,1.9,2.2c0.4,0.2,0.7,0.3,1.1,0.3c0.2,0,0.4,0,0.5,0c0.4,0,0.8-0.1,1.2-0.2l4.9-1.7 c2.6-0.9,4.1-3.4,4-6.6L374.5,238.9L374.5,238.9z"/> </g> <g id="chat"> <path class="st2" d="M280.2,136.3c0-13.8-11.2-25-25-25h-50.1c-13.8,0-25,11.2-25,25v31.5c0,0.7,0,1.4,0.1,2 c0.9,10.6,9,19.1,19.4,21.5l6.5,1.5h37.8l12.8,16.6l1.3-16.9c12.5-1.4,22.3-11.9,22.3-24.8V136.3z"/> <g> <g> <path class="st9" d="M212.5,151.5c0-4-3.3-7.2-7.3-7.2c-4,0-7.2,3.2-7.2,7.2c0,4,3.2,7.3,7.2,7.3 C209.2,158.7,212.5,155.5,212.5,151.5z"/> </g> <g> <path class="st9" d="M237.4,151.5c0-4-3.3-7.2-7.3-7.2c-4,0-7.3,3.2-7.3,7.2c0,4,3.2,7.3,7.3,7.3 C234.1,158.7,237.4,155.5,237.4,151.5z"/> </g> <g> <path class="st9" d="M262.3,151.5c0-4-3.2-7.2-7.3-7.2c-4,0-7.3,3.2-7.3,7.2c0,4,3.2,7.3,7.3,7.3 C259,158.7,262.3,155.5,262.3,151.5z"/> </g> </g> </g> <g class="st1"> <path class="st10" d="M301.8,360.7h-90.4c0,0,10-1.4,15.3-5c7.7,0,62.4,0,62.4,0s6.6,3.4,13.4,5.5L301.8,360.7z"/> </g> <g> <polygon class="st11" points="257.9,388.8 257.9,362.6 172.4,362.2 172.4,360.2 169.9,360.2 169.7,394.8 175.5,394.8 175.5,388.8 "/> <path class="st12" d="M302.7,360.7c-15.1-1.5-26.9-14.2-26.8-29.7c0-3.1,0-6.4,0-9.7c0-8.6,0.6-16.4,1.2-22.8 c0.7-6.6,3.4-12.7,7.8-17.7c6.3-7.2,9.7-16.9,8.3-27.5c-2-15.7-14.8-28.3-30.5-30.1c-1.6-0.2-3.2-0.2-4.7-0.2v137.4L302.7,360.7z"/> <path class="st11" d="M257.9,223.1c-18.9,0.3-34.2,15.7-34.3,34.7c0,8.5,3,16.3,8,22.3c4.1,5,6.7,11.1,7.4,17.5 c0.7,6.4,1.3,14.1,1.2,23.2c0,3.4,0,6.8,0,9.9c-0.1,15.5-12,28.2-27.1,29.5l44.9,0.2V223.1z"/> <polygon class="st13" points="346.1,361.1 343.1,361.1 343.1,363.1 257.9,362.6 257.9,388.8 340.2,388.8 340.2,395.7 345.9,395.7 "/> <polygon class="st10" points="175.5,394.8 175.5,395.7 257.9,395.7 257.9,395.2 "/> <polygon class="st10" points="257.9,395.7 340.2,395.7 340.2,395.7 257.9,395.2 "/> <polygon class="st10" points="257.9,388.8 175.5,388.8 175.5,394.8 257.9,395.2 "/> <polygon class="st14" points="257.9,388.8 257.9,395.2 340.2,395.7 340.2,388.8 "/> <path class="st2" d="M213.1,360.3l-40.6-0.2l0,0.1l37.9,0.2C211.2,360.4,212.1,360.3,213.1,360.3z"/> <path class="st2" d="M343.1,361.1V361l-40.4-0.2c0.9,0.1,1.8,0.1,2.7,0.2L343.1,361.1z"/> <path class="st2" d="M257.9,362.6l85.2,0.5l0-2l-37.7-0.2c-0.9,0-1.8-0.1-2.7-0.2l-44.7-0.2V362.6z"/> <path class="st2" d="M257.9,362.6v-2.1l-44.9-0.2c-0.9,0.1-1.8,0.1-2.8,0.1l-37.9-0.2l0,2L257.9,362.6z"/> </g> <g class="st1"> <path class="st2" d="M378.9,379.6c-4.6-4.6-11.3-15.8-3.4-24.8c9.7-10.9,24.8-4.1,25.4-3.8l-1.8,4c-0.5-0.2-12.8-5.7-20.3,2.7 c-7.2,8.1,2.7,18.4,3.2,18.8L378.9,379.6z"/> <path class="st2" d="M360.4,398l-4-1.7c0.1-0.3,3.3-7.7,17.8-6.2c16.7,1.7,21.9-9.1,22.1-9.5l4,1.8c-0.3,0.6-6.7,14.1-26.6,12 C362.7,393.3,360.4,398,360.4,398z"/> <path class="st2" d="M415.6,369.3l-0.8-5.8c13.2-1.8,18.1-11.2,19.9-16.7c2.9-9,1.3-19.2-4-24.3c-4.4-4.3-9.7-6.4-15.1-5.9 c-5.1,0.5-9.8,3.4-13.2,8.1l-4.7-3.4c4.4-6.2,10.6-9.9,17.4-10.6c7.1-0.7,14,2,19.6,7.5c6.9,6.7,9.1,19.2,5.5,30.3 C436.5,360.1,427.5,367.6,415.6,369.3z"/> <path class="st2" d="M378,335.5l-5.2-2.6c0.2-0.5,6.1-11.8,17-13.9c6.5-1.3,13.2,1,20,6.8l-3.8,4.4c-5.3-4.5-10.4-6.4-15.1-5.5 C382.8,326.2,378,335.4,378,335.5z"/> </g> <g class="st1"> <path class="st2" d="M137.4,382.1l-2.6-2.6c0.4-0.4,8.9-9.2,2.7-16.1c-6.5-7.2-17-2.6-17.5-2.3l-1.6-3.4 c0.6-0.2,13.5-6.1,21.8,3.3C147.1,368.5,141.4,378.1,137.4,382.1z"/> <path class="st2" d="M153.3,397.9c0,0-2-4-11.4-3c-17.1,1.8-22.6-9.8-22.8-10.3l3.4-1.6c0.2,0.4,4.7,9.7,19,8.2 c12.4-1.3,15.1,5.1,15.2,5.3L153.3,397.9L153.3,397.9z"/> <path class="st2" d="M105.9,373.2c-10.2-1.4-17.9-7.9-21.2-17.7c-3.1-9.6-1.2-20.3,4.7-26c4.8-4.7,10.8-7,16.9-6.5 c5.9,0.5,11.2,3.8,15,9.1l-4.1,2.9c-2.9-4.1-6.9-6.6-11.4-7c-4.6-0.4-9.2,1.4-12.9,5.1c-4.5,4.4-6,13.2-3.4,20.9 c1.5,4.7,5.8,12.7,17.1,14.3L105.9,373.2z"/> <path class="st2" d="M138.2,344.2c0-0.1-4.2-8-11.1-9.3c-4-0.8-8.4,0.8-12.9,4.7l-3.3-3.8c5.8-5,11.5-6.9,17.1-5.8 c9.3,1.8,14.4,11.6,14.6,12L138.2,344.2z"/> </g> <path class="st15" d="M179.2,319.7c-0.7,0-1.5,0-2.2,0l0.1-2.6c2.7,0.1,5.3,0,7.8-0.1l0.2,2.6C183.2,319.7,181.2,319.7,179.2,319.7 z M169,319.3c-2.6-0.2-5.2-0.6-7.9-1l0.4-2.6c2.6,0.4,5.3,0.7,7.8,1L169,319.3z M193,318.7l-0.4-2.6c2.6-0.4,5.2-0.9,7.6-1.6 l0.7,2.6C198.4,317.8,195.7,318.3,193,318.7z M153.2,316.8c-1.1-0.2-2.2-0.5-3.3-0.7c-1.5-0.4-3-0.8-4.5-1.3l0.9-2.5 c1.4,0.5,2.9,0.9,4.3,1.3c1.1,0.3,2.2,0.5,3.2,0.7L153.2,316.8z M208.6,314.7l-1-2.5c2.5-1,4.8-2.1,7-3.3l1.3,2.3 C213.6,312.5,211.2,313.7,208.6,314.7z M137.9,311.4c-2.4-1.3-4.7-2.7-6.9-4.3l1.6-2.1c2.1,1.5,4.3,2.9,6.5,4.1L137.9,311.4z M222.8,306.8l-1.6-2.1c3.7-2.9,5.5-5.2,5.5-5.2l2.1,1.6C228.7,301.3,226.8,303.7,222.8,306.8z M124.9,301.9c-2-1.9-3.8-3.9-5.4-6 l2.1-1.6c1.6,2,3.3,3.9,5.2,5.7L124.9,301.9z M115,289.1c-1.3-2.4-2.5-4.8-3.4-7.3l2.5-0.9c0.9,2.4,2,4.7,3.3,7L115,289.1z M109.2,274c-0.6-2.6-0.9-5.3-1.1-8l2.6-0.2c0.2,2.6,0.5,5.2,1,7.7L109.2,274z M110.8,258l-2.6-0.2c0.2-2.6,0.5-5.3,1.1-8l2.6,0.5 C111.3,252.9,111,255.5,110.8,258z M113.7,242.8l-2.5-0.8c0.8-2.5,1.7-5,2.7-7.6l2.4,1C115.3,237.9,114.4,240.4,113.7,242.8z M119.5,228.3l-2.4-1.2c1.2-2.3,2.4-4.7,3.8-7l2.3,1.3C121.9,223.7,120.6,226,119.5,228.3z M127,214.3l-2.4-1.1 c1.1-2.3,2-4.8,2.8-7.2l2.5,0.8C129.1,209.4,128.1,211.9,127,214.3z M132.1,199l-2.6-0.6c0.6-2.5,1-5.1,1.3-7.7l2.6,0.3 C133.2,193.7,132.7,196.4,132.1,199z M134.1,183.1l-2.6-0.1c0-0.7,0-1.4,0-2.1c0-1.9-0.1-3.8-0.2-5.7l2.6-0.2 c0.2,1.9,0.2,3.9,0.2,5.9C134.1,181.7,134.1,182.4,134.1,183.1z M130.2,167.5c-0.5-2.6-1.2-5.1-2-7.5l2.5-0.9 c0.8,2.5,1.5,5.1,2.1,7.8L130.2,167.5z M58.8,156.6l-2.5-0.7c0.5-1.8,1.4-4.6,3.2-7.6l2.3,1.3C60.1,152.4,59.2,154.9,58.8,156.6z M125.2,153c-1.2-2.3-2.6-4.5-4.2-6.4l2.1-1.7c1.7,2.1,3.2,4.4,4.5,6.8L125.2,153z M66.2,143.5l-1.9-1.8c1.9-2,4.1-3.7,6.5-5.1 l1.4,2.3C69.9,140.1,67.9,141.7,66.2,143.5z M115.6,141.2c-2-1.6-4.2-2.9-6.5-3.9l1.1-2.4c2.5,1.1,4.9,2.6,7,4.3L115.6,141.2z M79,135.7l-0.8-2.5c2.5-0.8,5.2-1.3,8-1.6l0.3,2.6C83.9,134.5,81.4,135,79,135.7z M101.9,134.9c-1.3-0.3-2.6-0.5-4-0.6 c-1.3-0.1-2.5-0.2-3.7-0.3l0.1-2.6c1.2,0.1,2.5,0.2,3.8,0.3c1.4,0.1,2.9,0.4,4.3,0.7L101.9,134.9z"/> <g class="st8"> <g> <path class="st2" d="M95.9,203.2h-12v-10.5h12V203.2z M86.4,200.7h7.2v-5.6h-7.2V200.7z"/> <path class="st2" d="M89.5,194.9c-6.9,0-17.4-10.8-17.4-20.1c0-9.6,7.8-17.4,17.4-17.4c9.6,0,17.4,7.8,17.4,17.4 C106.9,184.2,97.6,194.9,89.5,194.9z M89.5,159.8c-8.2,0-14.9,6.7-14.9,14.9c0,8.3,9.7,17.7,14.9,17.7c6.2,0,14.9-9.1,14.9-17.7 C104.4,166.5,97.7,159.8,89.5,159.8z"/> </g> <path class="st2" d="M90.1,207.2c-2.7,0-4.9-2.2-4.9-5h3.2c0,1,0.8,1.8,1.8,1.8c1,0,1.8-0.8,1.8-1.8H95 C95,205,92.8,207.2,90.1,207.2z"/> <polygon class="st2" points="93.4,193 91.8,192.7 95,173.1 90.5,173.4 84.9,173.1 88.8,192.5 87.3,192.8 82.9,171.4 90.5,171.9 96.9,171.4 "/> <rect x="88.1" y="146.7" class="st2" width="2.4" height="5.5"/> <rect x="70.6" y="154.9" transform="matrix(0.7071 -0.7071 0.7071 0.7071 -90.4476 96.9659)" class="st2" width="2.4" height="5.5"/> <rect x="64.1" y="173" transform="matrix(6.123234e-17 -1 1 6.123234e-17 -110.4917 241.0917)" class="st2" width="2.4" height="5.5"/> <rect x="107.7" y="154.9" transform="matrix(-0.7071 -0.7071 0.7071 -0.7071 74.4035 346.1447)" class="st2" width="2.4" height="5.5"/> <rect x="114.2" y="173" transform="matrix(6.123234e-17 -1 1 6.123234e-17 -60.3773 291.2061)" class="st2" width="2.4" height="5.5"/> </g> <g class="st8"> <path class="st2" d="M169.7,291.9c-11.6,0-21.9-7-26.1-17.8l-0.2-0.5l0.2-0.5c4.2-10.8,14.5-17.8,26.1-17.8 c11.6,0,21.9,7,26.1,17.8l0.2,0.5l-0.2,0.5C191.6,284.9,181.3,291.9,169.7,291.9z M146.7,273.5c3.9,9.3,12.9,15.4,23.1,15.4 c10.2,0,19.2-6,23.1-15.4c-3.9-9.3-12.9-15.4-23.1-15.4C159.6,258.2,150.6,264.2,146.7,273.5z"/> <path class="st2" d="M169.8,281.1c-4.8,0-8.7-3.9-8.7-8.7c0-4.8,3.9-8.7,8.7-8.7c4.8,0,8.7,3.9,8.7,8.7 C178.5,277.2,174.6,281.1,169.8,281.1z M169.8,267.4c-2.7,0-5,2.2-5,5c0,2.7,2.2,5,5,5c2.7,0,5-2.2,5-5 C174.8,269.7,172.6,267.4,169.8,267.4z"/> <polygon class="st2" points="203.4,253.1 204.1,254.9 205.6,256 203.8,256.7 202.5,258.5 201.9,256.4 200.4,255.2 202.2,254.6 "/> <polygon class="st2" points="145.8,231.5 148.7,231.5 151.2,230 151.1,232.9 153,235.7 149.7,235.3 147.3,236.8 147.3,233.9 "/> <polygon class="st2" points="183.9,232.3 184.6,234.1 186.1,235.2 184.3,235.9 183,237.7 182.4,235.6 180.9,234.4 182.7,233.8 "/> <polygon class="st2" points="135.3,255 137.1,255.8 139,255.5 138.2,257.3 138.6,259.5 136.8,258.4 134.9,258.7 135.6,256.9 "/> <polygon class="st2" points="169,247 170.2,246.8 171.1,245.9 171.4,247.1 172.5,248.1 171,248.3 170.2,249.2 169.9,247.9 "/> <polygon class="st2" points="157.8,296.2 159,296 159.9,295.1 160.2,296.3 161.2,297.3 159.8,297.4 158.9,298.3 158.7,297.1 "/> </g> <g class="st16"> <rect x="175.4" y="401" class="st17" width="148" height="1.5"/> <g class="st8"> <rect x="356.5" y="415.7" class="st18" width="3.7" height="1.2"/> <path class="st18" d="M350.8,416.9h-12.7v-1.2h12.7V416.9z M319,416.9h-5.7v-1.2h5.7V416.9z M300.5,416.9h-12.7v-1.2h12.7V416.9z "/> <path class="st18" d="M285.3,416.9h-3.8v-1.2h3.8V416.9z M275.7,416.9H263v-1.2h12.7V416.9z M243.9,416.9h-3.8v-1.2h3.8V416.9z M234.4,416.9h-12.7v-1.2h12.7V416.9z"/> <rect x="206.5" y="415.7" class="st18" width="3.7" height="1.2"/> </g> <g class="st8"> <rect x="335.5" y="407.4" class="st18" width="1.3" height="1.2"/> <path class="st18" d="M321.7,408.6h-9.2v-1.2h9.2L321.7,408.6z M310.2,408.6h-13.8v-1.2h13.8V408.6z M296.4,408.6h-4.6v-1.2h4.6 L296.4,408.6z"/> <path class="st18" d="M287.2,408.6h-2.3v-1.2h2.3V408.6z M271.2,408.6h-9.2v-1.2h9.2L271.2,408.6z M259.6,408.6h-2.3v-1.2h2.3 V408.6z M243.6,408.6h-9.2v-1.2h9.2L243.6,408.6z M232,408.6h-2.3v-1.2h2.3V408.6z M216,408.6h-9.2v-1.2h9.2L216,408.6z M204.4,408.6h-2.3v-1.2h2.3V408.6z"/> <rect x="184.7" y="407.4" class="st18" width="1.3" height="1.2"/> </g> </g> </g> </svg>