<svg clip-rule="evenodd" fill-rule="evenodd" stroke-linejoin="round" stroke-miterlimit="2" viewBox="0 0 491 205" xmlns="http://www.w3.org/2000/svg"><path d="m1.24 58.17h487.665v109.39h-487.665z" fill="#fff" fill-rule="nonzero"/><path d="m4.73 61.7h480.697v102.344h-480.697z" fill="#2b61ab" fill-rule="nonzero"/><g transform="translate(-2703.41 5265.91)"><g fill="#fff"><path d="m2751.43-5127.42h11.99v-24.76l19.49-26.36h-12.78l-11.62 16.18-10.58-16.18h-14.57l18.07 26.87z"/><path d="m2788.11-5127.42h31.4v-10.74h-19.7v-10.13h16.63v-10.47h-16.63v-9.24h19.41v-10.54h-31.11z"/><path d="m2830.74-5141.85 1 13.64c2.53.8 4.9 1.39 7.13 1.82 2.23.41 4.32.63 6.27.63 5.81-.1 10.32-1.68 13.54-4.73 3.22-3.07 4.85-7.04 4.9-11.94-.07-3.98-1.24-7.16-3.53-9.54-2.29-2.37-5.3-4.54-9.04-6.5l-5.93-3.31c-1.18-.66-2.06-1.37-2.63-2.16-.58-.78-.87-1.61-.87-2.47.02-1.28.5-2.28 1.47-3.01.96-.73 2.3-1.1 4.03-1.11 1.37 0 3.13.37 5.26 1.14 2.14.78 4.54 2.01 7.24 3.7v-11.98c-2.39-.84-4.65-1.48-6.77-1.91-2.11-.47-4.13-.69-6.01-.69-5.07.08-9.06 1.42-12 4.03-2.93 2.6-4.42 5.95-4.48 10.05-.01 3.02.78 5.72 2.39 8.13 1.6 2.4 4.06 4.55 7.38 6.45l3.42 1.95c2.6 1.45 4.66 2.72 6.14 3.82 1.5 1.11 2.25 2.5 2.29 4.2-.01 1.45-.63 2.62-1.83 3.55-1.21.92-2.9 1.41-5.1 1.44-2.4-.01-4.74-.49-7.04-1.41-2.28-.93-4.69-2.19-7.23-3.79"/><path d="m3060.17-5127.42h8.57v-32.49l32.63 34.15h.93v-52.78h-8.63v32.49l-32.57-34.15h-.93z"/><path d="m3118.42-5127.42h8.78v-23.89l22.78 23.89h11.43l-25.5-26.57 23.07-24.55h-10.28l-21.5 22.82v-22.82h-8.78z"/><path d="m2986.45-5264.41-110.81 201.03-38.03-38.49h26.21z"/></g><path d="m2972.59-5242.82-97.7 173.71-28.88-29.23h19.56z" fill="#d71c23"/><path d="m3018.41-5143.8 8.35-19.07 8.21 19.07zm-7.44 16.39 4.14-9.1h23l4.07 9.1h9.35l-23.98-52.79h-.73l-24.83 52.79z" fill="#fff"/><path d="m2971.64-5157.3v-14.45h4.86c3.28-.03 5.74.52 7.35 1.6 1.63 1.1 2.43 2.86 2.43 5.26-.01 2.33-.84 4.18-2.47 5.52-1.61 1.35-3.94 2.03-6.96 2.07zm0 22.73v-15.95h6.21c3.12 0 5.47.71 7.07 2.05 1.62 1.36 2.42 3.27 2.44 5.75-.01 2.61-.85 4.63-2.47 6.04-1.63 1.4-3.92 2.11-6.93 2.12zm-8.57 7.16v-51.13h15.09c4.12.01 9.22.68 12.6 3.34 2.81 2.2 4.22 5.42 4.22 9.65.01 2.58-.65 4.77-1.97 6.58-1.3 1.83-3.32 3.25-6.02 4.26 2.91.75 5.16 2.19 6.73 4.33 1.58 2.13 2.38 4.82 2.4 8.03 0 5-1.61 8.75-4.83 11.23-3.21 2.47-8.05 3.71-14.51 3.7l-13.69.01z" fill="#fff"/></g></svg>